<svg width="702" height="168" viewBox="0 0 702 168" fill="none" xmlns="http://www.w3.org/2000/svg">
<g id="logo-full">
<g id="Group 6">
<g id="Group 3">
<g id="Story Match">
<path fill-rule="evenodd" clip-rule="evenodd" d="M235.492 100.065C236.793 102.49 237.444 105.122 237.444 107.962C237.444 110.565 236.971 112.901 236.024 114.971C234.959 117.219 233.599 119.083 231.943 120.561C231.055 121.449 230.138 122.188 229.192 122.78C228.186 123.43 227.122 123.963 225.998 124.377C224.874 124.85 223.395 125.22 221.561 125.486C219.727 125.752 218.13 125.885 216.77 125.885C216.001 125.885 215.158 125.841 214.241 125.752C213.324 125.663 212.407 125.53 211.49 125.353C210.574 125.175 209.672 124.968 208.784 124.732C207.897 124.495 207.098 124.229 206.389 123.933C206.27 123.874 206.167 123.83 206.078 123.8C205.989 123.77 205.886 123.696 205.767 123.578C205.412 123.342 205.146 123.194 204.969 123.135C204.614 122.957 204.318 122.75 204.082 122.513C203.904 122.336 203.756 122.218 203.638 122.158C203.224 121.863 202.869 121.39 202.573 120.739C202.337 120.206 202.218 119.585 202.218 118.876C202.337 118.107 202.573 117.485 202.928 117.012C203.342 116.421 203.845 115.947 204.436 115.593L204.525 115.504C205.176 115.267 205.915 115.149 206.743 115.149C207.335 115.149 207.956 115.356 208.607 115.77C208.725 115.829 208.814 115.888 208.873 115.947C208.932 116.007 209.021 116.066 209.139 116.125C209.79 116.48 210.352 116.761 210.825 116.968C211.298 117.175 212.038 117.426 213.043 117.722C213.812 117.959 215.025 118.077 216.681 118.077C217.45 118.077 218.441 117.988 219.654 117.811C220.866 117.633 221.887 117.338 222.715 116.923C223.365 116.628 223.957 116.332 224.489 116.036C225.022 115.74 225.524 115.356 225.998 114.883C226.944 114.055 227.684 112.99 228.216 111.688C228.748 110.565 229.014 109.293 229.014 107.873C229.014 106.513 228.748 105.241 228.216 104.058C227.92 103.407 227.595 102.83 227.24 102.327C226.885 101.825 226.471 101.337 225.998 100.863C225.347 100.213 224.696 99.6804 224.046 99.2663C223.809 99.148 223.587 99.0297 223.38 98.9114C223.173 98.7931 222.922 98.6748 222.626 98.5565C221.443 98.0241 220.112 97.7579 218.633 97.7579C216.859 97.7579 215.232 97.5509 213.753 97.1368C213.516 97.0777 213.295 97.0185 213.088 96.9594C212.881 96.9002 212.659 96.8411 212.422 96.7819C211.535 96.427 210.736 96.0721 210.026 95.7172C209.79 95.5988 209.642 95.5397 209.583 95.5397C208.636 95.0665 207.779 94.5341 207.01 93.9426C206.714 93.706 206.462 93.4841 206.255 93.2771C206.048 93.0701 205.797 92.8482 205.501 92.6116C204.851 91.9609 204.215 91.2363 203.594 90.4378C202.972 89.6392 202.425 88.7667 201.952 87.8202C200.651 85.395 200 82.7627 200 79.9233C200 77.498 200.503 75.1911 201.508 73.0024C202.455 70.8138 203.815 68.9209 205.59 67.3238C206.359 66.5548 207.246 65.8154 208.252 65.1055C209.198 64.514 210.263 63.9816 211.446 63.5084C212.57 63.0352 214.064 62.6655 215.927 62.3993C217.79 62.1331 219.373 62 220.674 62C221.443 62 222.286 62.0444 223.203 62.1331C224.12 62.2218 225.036 62.3549 225.953 62.5324C226.87 62.7098 227.772 62.9169 228.66 63.1535C229.547 63.3901 230.345 63.6563 231.055 63.952C231.174 64.0112 231.277 64.0704 231.366 64.1295C231.455 64.1887 231.558 64.2478 231.676 64.307C231.795 64.4253 231.943 64.514 232.12 64.5732C232.297 64.6323 232.445 64.721 232.564 64.8393L233.362 65.3717L233.806 65.8154C234.338 66.1703 234.693 66.6139 234.871 67.1463C235.166 67.8561 235.285 68.5068 235.226 69.0983C235.107 69.8082 234.9 70.3997 234.604 70.8729C234.25 71.4645 233.717 71.9377 233.007 72.2926L232.919 72.3813C232.09 72.6771 231.381 72.7954 230.789 72.7363C229.961 72.7363 229.31 72.5292 228.837 72.1151L228.305 71.849V71.7602C227.713 71.4645 227.166 71.1983 226.663 70.9617C226.16 70.7251 225.406 70.4589 224.401 70.1631C223.927 70.0448 223.425 69.9561 222.892 69.8969C222.36 69.8378 221.65 69.8082 220.763 69.8082C219.994 69.8082 219.018 69.8969 217.835 70.0744C216.652 70.2518 215.646 70.5476 214.818 70.9617C214.167 71.2574 213.561 71.568 212.999 71.8933C212.437 72.2187 211.919 72.6179 211.446 73.0912C210.973 73.5644 210.559 74.0524 210.204 74.5552C209.849 75.058 209.524 75.6347 209.228 76.2854C208.695 77.3502 208.429 78.622 208.429 80.1008C208.429 81.4022 208.695 82.6739 209.228 83.9161C209.879 85.2175 210.618 86.2823 211.446 87.1104C212.097 87.7019 212.777 88.2047 213.487 88.6188C213.901 88.9146 214.345 89.1512 214.818 89.3286C216.06 89.861 217.421 90.1272 218.899 90.1272C220.437 90.1272 222.064 90.3638 223.779 90.837L225.11 91.1032L227.506 92.168C227.565 92.2271 227.624 92.2715 227.684 92.3011C227.743 92.3306 227.802 92.375 227.861 92.4342C228.867 92.9074 229.724 93.4102 230.434 93.9426C230.73 94.1792 230.996 94.401 231.233 94.608C231.469 94.8151 231.706 95.0665 231.943 95.3622C233.362 96.7228 234.545 98.2903 235.492 100.065ZM274.608 121.892C274.608 123.075 274.135 124.081 273.189 124.909C272.242 125.737 271.177 126.063 269.994 125.885C269.107 125.708 268.249 125.501 267.421 125.264C266.593 125.027 265.794 124.761 265.025 124.465C262.364 123.401 260.116 121.863 258.282 119.852C256.448 117.959 255.088 115.652 254.201 112.931C253.313 110.269 252.87 107.429 252.87 104.413V90.4821H247.723C246.599 90.4821 245.653 90.0976 244.884 89.3286C244.115 88.5596 243.73 87.6132 243.73 86.4893C243.73 85.3062 244.115 84.3302 244.884 83.5612C245.653 82.7922 246.599 82.4077 247.723 82.4077H248.877C250.001 82.4077 250.947 82.0233 251.716 81.2543C252.485 80.4853 252.87 79.5388 252.87 78.4149V73.6235C252.87 72.4996 253.269 71.5384 254.067 70.7398C254.866 69.9413 255.827 69.542 256.951 69.542C258.075 69.542 259.021 69.9413 259.79 70.7398C260.559 71.5384 260.944 72.4996 260.944 73.6235V82.4077H273.721C274.845 82.4077 275.791 82.7922 276.56 83.5612C277.329 84.3302 277.714 85.3062 277.714 86.4893C277.714 87.6132 277.329 88.5596 276.56 89.3286C275.791 90.0976 274.845 90.4821 273.721 90.4821H260.944V104.413C260.944 106.246 261.181 108.021 261.654 109.736C262.127 111.452 262.866 112.901 263.872 114.084C264.937 115.326 266.356 116.302 268.131 117.012C268.9 117.426 269.935 117.722 271.237 117.899C272.242 118.018 273.055 118.461 273.677 119.23C274.298 119.999 274.608 120.887 274.608 121.892ZM307.602 81.5205C310.619 81.5205 313.488 82.112 316.209 83.295C318.93 84.419 321.267 86.0161 323.219 88.0864C325.289 90.0385 326.886 92.375 328.01 95.096C329.193 97.8171 329.785 100.686 329.785 103.703C329.785 106.72 329.193 109.588 328.01 112.31C326.886 114.971 325.289 117.338 323.219 119.408C321.267 121.478 318.93 123.075 316.209 124.199C313.606 125.323 310.738 125.885 307.602 125.885C304.467 125.885 301.598 125.323 298.996 124.199C296.334 123.075 293.968 121.478 291.897 119.408C290.892 118.402 290.004 117.308 289.235 116.125C288.466 114.942 287.786 113.67 287.195 112.31C286.012 109.588 285.42 106.72 285.42 103.703C285.42 100.686 286.012 97.8171 287.195 95.096C288.319 92.4342 289.886 90.0976 291.897 88.0864C293.968 86.0161 296.334 84.419 298.996 83.295C301.717 82.112 304.586 81.5205 307.602 81.5205ZM307.602 118.077C309.554 118.077 311.418 117.722 313.192 117.012C314.849 116.243 316.387 115.208 317.806 113.907C318.457 113.256 319.034 112.546 319.537 111.777C320.039 111.008 320.468 110.18 320.823 109.293C321.237 108.465 321.533 107.577 321.71 106.631C321.888 105.684 321.977 104.708 321.977 103.703C321.977 101.692 321.592 99.8283 320.823 98.1128C320.468 97.2255 320.039 96.3974 319.537 95.6284C319.034 94.8594 318.457 94.1496 317.806 93.4989C317.156 92.8482 316.446 92.2715 315.677 91.7687C314.908 91.2659 314.08 90.837 313.192 90.4821C311.477 89.7131 309.614 89.3286 307.602 89.3286C306.597 89.3286 305.621 89.4174 304.674 89.5948C303.728 89.7723 302.841 90.068 302.012 90.4821C301.125 90.837 300.297 91.2659 299.528 91.7687C298.759 92.2715 298.049 92.8482 297.399 93.4989C296.097 94.9186 295.062 96.4566 294.293 98.1128C293.583 99.8874 293.228 101.751 293.228 103.703C293.228 105.773 293.583 107.636 294.293 109.293C295.062 110.949 296.097 112.487 297.399 113.907C298.818 115.208 300.356 116.243 302.012 117.012C303.669 117.722 305.532 118.077 307.602 118.077ZM366.151 81.5205C367.215 81.5205 368.132 81.9049 368.901 82.6739C369.67 83.4429 370.055 84.3598 370.055 85.4245V85.8682C370.055 86.933 369.67 87.8498 368.901 88.6188C368.132 89.3878 367.215 89.7723 366.151 89.7723H366.062C364.287 89.7723 362.483 90.0976 360.649 90.7483C358.757 91.4581 357.13 92.375 355.769 93.4989C354.231 94.682 352.989 96.0129 352.043 97.4917C351.037 99.148 350.446 100.804 350.268 102.461V120.828C350.268 121.951 349.869 122.913 349.07 123.711C348.272 124.51 347.31 124.909 346.187 124.909C345.063 124.909 344.101 124.51 343.303 123.711C342.504 122.913 342.105 121.951 342.105 120.828V86.4893C342.105 85.3062 342.49 84.3302 343.259 83.5612C344.087 82.7331 345.063 82.319 346.187 82.319C347.429 82.319 348.405 82.7331 349.115 83.5612C349.233 83.6795 349.351 83.7831 349.47 83.8718C349.588 83.9605 349.677 84.064 349.736 84.1823C349.972 84.3598 350.209 84.5668 350.446 84.8034C350.682 85.0401 350.948 85.1879 351.244 85.2471H351.688C352.043 85.2471 352.457 85.1288 352.93 84.8922C353.285 84.7147 353.714 84.5077 354.217 84.2711C354.719 84.0345 355.237 83.7978 355.769 83.5612C356.302 83.3246 356.819 83.1176 357.322 82.9401C357.825 82.7627 358.254 82.6148 358.609 82.4965C359.969 82.1416 361.256 81.8902 362.468 81.7423C363.681 81.5944 364.879 81.5205 366.062 81.5205H366.151ZM411.301 82.4077C412.484 82.4077 413.46 82.807 414.229 83.6056C414.998 84.4042 415.382 85.3654 415.382 86.4893V126.506C415.382 127.867 415.308 129.242 415.161 130.632C415.013 132.022 414.732 133.398 414.318 134.758C414.258 135.054 414.199 135.32 414.14 135.557C414.081 135.793 413.992 136.059 413.874 136.355C413.105 138.721 411.951 140.792 410.413 142.566C408.757 144.4 406.746 145.79 404.38 146.737C401.895 147.742 398.938 148.245 395.507 148.245C390.656 148.245 386.693 146.884 383.617 144.163C382.907 143.513 382.242 142.862 381.621 142.211C381 141.561 380.453 140.851 379.979 140.082C379.506 139.372 379.269 138.647 379.269 137.908C379.269 137.169 379.447 136.488 379.802 135.867C380.157 135.246 380.645 134.728 381.266 134.314C381.887 133.9 382.612 133.693 383.44 133.693C384.09 133.693 384.726 133.841 385.347 134.137C385.969 134.433 386.457 134.876 386.811 135.468C387.462 136.533 388.349 137.479 389.473 138.307C390.952 139.431 392.963 139.993 395.507 139.993C398.169 139.993 400.269 139.638 401.807 138.928C403.404 138.219 404.587 137.213 405.356 135.912C406.066 134.788 406.569 133.309 406.864 131.475C407.042 129.819 407.131 128.015 407.131 126.063V123.933C407.131 123.519 406.968 123.208 406.642 123.001C406.317 122.794 405.977 122.809 405.622 123.046C404.38 123.815 403.138 124.406 401.895 124.82C399.943 125.53 397.814 125.885 395.507 125.885C392.549 125.885 389.799 125.323 387.255 124.199C384.889 123.016 382.878 121.419 381.222 119.408C379.506 117.515 378.205 115.178 377.317 112.398C376.43 109.736 375.987 106.897 375.987 103.88V86.4893C375.987 85.3654 376.386 84.4042 377.184 83.6056C377.983 82.807 378.974 82.4077 380.157 82.4077C381.281 82.4077 382.242 82.807 383.04 83.6056C383.839 84.4042 384.238 85.3654 384.238 86.4893V103.703C384.238 105.537 384.475 107.4 384.948 109.293C385.362 110.949 386.042 112.487 386.989 113.907C387.995 115.326 389.178 116.362 390.538 117.012C392.017 117.781 393.732 118.166 395.684 118.166C397.755 118.166 399.47 117.781 400.831 117.012C402.25 116.362 403.433 115.326 404.38 113.907C405.386 112.546 406.095 111.008 406.509 109.293C406.923 107.636 407.131 105.773 407.131 103.703V86.4893C407.131 85.3654 407.53 84.4042 408.328 83.6056C409.127 82.807 410.118 82.4077 411.301 82.4077ZM478.709 86.4006L495.745 63.6859C496.514 62.5619 497.608 62 499.028 62H501.069C502.193 62 503.154 62.3993 503.952 63.1978C504.751 63.9964 505.15 64.9576 505.15 66.0815V120.916C505.15 122.04 504.751 123.001 503.952 123.8C503.154 124.599 502.193 124.998 501.069 124.998C499.886 124.998 498.895 124.599 498.096 123.8C497.298 123.001 496.928 122.04 496.987 120.916V86.8442C496.987 85.8386 496.721 84.9957 496.189 84.3154C495.656 83.6352 495.005 83.162 494.236 82.8958C493.467 82.6296 492.654 82.6148 491.796 82.8514C490.939 83.088 490.214 83.5908 489.623 84.3598L478.709 98.8227C478.295 99.3551 477.807 99.7691 477.245 100.065C476.683 100.361 476.091 100.509 475.47 100.509C474.849 100.509 474.243 100.361 473.651 100.065C473.06 99.7691 472.557 99.3551 472.143 98.8227L461.318 84.3598C460.726 83.5908 460.002 83.1028 459.144 82.8958C458.286 82.6887 457.473 82.7035 456.704 82.9401C455.935 83.1767 455.284 83.6352 454.752 84.3154C454.22 84.9957 453.953 85.8386 453.953 86.8442V120.916C453.953 122.04 453.554 123.001 452.756 123.8C451.957 124.599 450.996 124.998 449.872 124.998C448.689 124.998 447.713 124.599 446.944 123.8C446.175 123.001 445.79 122.04 445.79 120.916V66.0815C445.79 64.9576 446.175 63.9964 446.944 63.1978C447.713 62.3993 448.689 62 449.872 62H451.913C453.273 62 454.367 62.5619 455.196 63.6859L472.143 86.4006C472.557 86.9329 473.06 87.3322 473.651 87.5984C474.243 87.8646 474.849 87.9977 475.47 87.9977C476.091 87.9977 476.683 87.8646 477.245 87.5984C477.807 87.3322 478.295 86.9329 478.709 86.4006ZM558.108 118.254C558.108 120.147 557.458 121.744 556.156 123.046C554.855 124.347 553.258 124.998 551.365 124.998H550.921C550.212 124.998 549.561 124.909 548.969 124.732C548.378 124.554 547.638 124.406 546.751 124.288C545.864 124.17 545.065 124.258 544.355 124.554C542.285 125.441 539.889 125.885 537.168 125.885C534.033 125.885 531.135 125.323 528.473 124.199C525.87 123.075 523.534 121.478 521.463 119.408C519.452 117.278 517.884 114.942 516.761 112.398C515.578 109.559 514.986 106.66 514.986 103.703C514.986 100.686 515.578 97.8171 516.761 95.096C517.884 92.4342 519.452 90.0976 521.463 88.0864C523.534 86.0161 525.87 84.419 528.473 83.295C531.312 82.112 534.211 81.5205 537.168 81.5205C540.067 81.5205 542.788 82.0676 545.331 83.1619C547.875 84.2563 550.093 85.7499 551.986 87.6428C553.879 89.5357 555.373 91.7539 556.467 94.2975C557.561 96.8411 558.108 99.5621 558.108 102.461V118.254ZM537.168 118.077C540.008 118.077 542.522 117.397 544.71 116.036C546.899 114.735 548.644 112.931 549.945 110.624C551.069 108.553 551.631 106.246 551.631 103.703C551.631 101.218 551.069 98.941 549.945 96.8706C548.703 94.5637 546.958 92.7299 544.71 91.3694C542.522 90.0089 540.008 89.3286 537.168 89.3286C535.157 89.3286 533.294 89.7131 531.578 90.4821C530.691 90.837 529.863 91.2659 529.094 91.7687C528.325 92.2715 527.615 92.8482 526.964 93.4989C525.663 94.9186 524.628 96.4566 523.859 98.1128C523.149 99.8874 522.794 101.751 522.794 103.703C522.794 105.773 523.149 107.636 523.859 109.293C524.628 110.949 525.663 112.487 526.964 113.907C528.384 115.208 529.922 116.243 531.578 117.012C533.353 117.722 535.216 118.077 537.168 118.077ZM598.024 121.892C598.024 123.075 597.55 124.081 596.604 124.909C595.657 125.737 594.593 126.063 593.41 125.885C592.522 125.708 591.665 125.501 590.836 125.264C590.008 125.027 589.21 124.761 588.441 124.465C585.779 123.401 583.531 121.863 581.697 119.852C579.864 117.959 578.503 115.652 577.616 112.931C576.728 110.269 576.285 107.429 576.285 104.413V90.4821H571.139C570.015 90.4821 569.068 90.0976 568.299 89.3286C567.53 88.5596 567.146 87.6132 567.146 86.4893C567.146 85.3062 567.53 84.3302 568.299 83.5612C569.068 82.7922 570.015 82.4077 571.139 82.4077H572.292C573.416 82.4077 574.362 82.0233 575.131 81.2543C575.9 80.4853 576.285 79.5388 576.285 78.4149V73.6235C576.285 72.4996 576.684 71.5384 577.483 70.7398C578.281 69.9413 579.242 69.542 580.366 69.542C581.49 69.542 582.437 69.9413 583.206 70.7398C583.975 71.5384 584.359 72.4996 584.359 73.6235V82.4077H597.136C598.26 82.4077 599.207 82.7922 599.976 83.5612C600.745 84.3302 601.129 85.3062 601.129 86.4893C601.129 87.6132 600.745 88.5596 599.976 89.3286C599.207 90.0976 598.26 90.4821 597.136 90.4821H584.359V104.413C584.359 106.246 584.596 108.021 585.069 109.736C585.542 111.452 586.282 112.901 587.287 114.084C588.352 115.326 589.772 116.302 591.546 117.012C592.315 117.426 593.35 117.722 594.652 117.899C595.657 118.018 596.471 118.461 597.092 119.23C597.713 119.999 598.024 120.887 598.024 121.892ZM645.392 113.463C646.575 114.055 647.27 115.001 647.477 116.302C647.684 117.604 647.285 118.728 646.279 119.674C645.629 120.325 644.919 120.931 644.15 121.493C643.381 122.055 642.582 122.573 641.754 123.046C638.441 124.939 634.804 125.885 630.84 125.885C627.705 125.885 624.836 125.323 622.234 124.199C619.512 123.075 617.176 121.478 615.224 119.408C613.154 117.456 611.556 115.119 610.433 112.398C609.309 109.796 608.747 106.927 608.747 103.792C608.747 100.597 609.309 97.6988 610.433 95.096C611.616 92.3158 613.213 89.9793 615.224 88.0864C617.176 86.0161 619.512 84.419 622.234 83.295C624.955 82.112 627.823 81.5205 630.84 81.5205C634.804 81.5205 638.441 82.4669 641.754 84.3598C643.529 85.3654 645.067 86.4893 646.368 87.7315C647.314 88.678 647.699 89.8019 647.521 91.1032C647.344 92.4046 646.664 93.3806 645.481 94.0313C644.712 94.4454 643.928 94.5932 643.129 94.4749C642.331 94.3566 641.606 94.0017 640.955 93.4102C639.95 92.4046 638.856 91.606 637.672 91.0145C635.661 89.8906 633.384 89.3286 630.84 89.3286C628.77 89.3286 626.936 89.7131 625.339 90.4821C623.683 91.1328 622.145 92.168 620.725 93.5876C619.365 94.889 618.329 96.3974 617.62 98.1128C616.851 99.8283 616.466 101.721 616.466 103.792C616.466 105.862 616.851 107.696 617.62 109.293C618.27 110.949 619.305 112.487 620.725 113.907C622.145 115.326 623.683 116.362 625.339 117.012C626.936 117.781 628.77 118.166 630.84 118.166C633.384 118.166 635.661 117.604 637.672 116.48C638.796 115.888 639.861 115.09 640.867 114.084C641.517 113.493 642.242 113.138 643.041 113.019C643.839 112.901 644.623 113.049 645.392 113.463ZM693.736 87.909C695.452 89.8019 696.812 92.1088 697.818 94.8299C698.764 97.3143 699.237 100.124 699.237 103.259V121.182C699.237 122.247 698.868 123.149 698.128 123.889C697.389 124.628 696.487 124.998 695.422 124.998C694.357 124.998 693.455 124.628 692.716 123.889C691.976 123.149 691.607 122.247 691.607 121.182V103.259C691.607 101.189 691.311 99.3551 690.719 97.7579C690.187 96.0425 689.389 94.5637 688.324 93.3215C687.436 92.0792 686.165 91.0737 684.508 90.3047C683.03 89.5357 681.285 89.1512 679.273 89.1512C677.558 89.1512 675.902 89.4765 674.305 90.1272C672.885 90.7779 671.643 91.6652 670.578 92.7891C670.105 93.3806 669.646 94.0017 669.203 94.6524C668.759 95.3031 668.389 96.0129 668.093 96.7819C667.443 98.3199 667.088 99.9466 667.029 101.662V121.182C667.029 122.247 666.659 123.149 665.92 123.889C665.18 124.628 664.278 124.998 663.213 124.998H662.77C661.705 124.998 660.803 124.599 660.063 123.8C659.324 123.001 658.954 121.833 658.954 120.295V66.9688C658.954 65.7858 659.339 64.8098 660.108 64.0408C660.877 63.2718 661.823 62.8873 662.947 62.8873C664.13 62.8873 665.106 63.2718 665.875 64.0408C666.644 64.8098 667.029 65.7858 667.029 66.9688V79.1248C667.029 79.7754 667.265 80.3374 667.739 80.8106C668.212 81.2838 668.774 81.5205 669.424 81.5205H679.273C682.231 81.5205 684.952 82.112 687.436 83.295C690.039 84.4781 692.139 86.0161 693.736 87.909Z" fill="white"/>
<path d="M235.492 100.065L234.221 100.743L234.223 100.746L235.492 100.065ZM236.024 114.971L237.326 115.588L237.334 115.57L236.024 114.971ZM231.943 120.561L230.984 119.487L230.953 119.514L230.924 119.543L231.943 120.561ZM229.192 122.78L228.429 121.558L228.41 121.571L229.192 122.78ZM225.998 124.377L225.5 123.026L225.469 123.037L225.439 123.05L225.998 124.377ZM206.389 123.933L205.745 125.221L205.789 125.243L205.835 125.262L206.389 123.933ZM205.767 123.578L206.786 122.56L206.685 122.459L206.566 122.38L205.767 123.578ZM204.969 123.135L204.325 124.422L204.416 124.468L204.513 124.501L204.969 123.135ZM203.638 122.158L202.801 123.33L202.893 123.396L202.994 123.446L203.638 122.158ZM202.573 120.739L201.257 121.324L201.262 121.335L202.573 120.739ZM202.218 118.876L200.795 118.657L200.778 118.765V118.876H202.218ZM202.928 117.012L204.08 117.876L204.094 117.857L204.108 117.838L202.928 117.012ZM204.436 115.593L205.177 116.827L205.329 116.736L205.455 116.611L204.436 115.593ZM204.525 115.504L204.033 114.15L203.733 114.26L203.507 114.486L204.525 115.504ZM208.607 115.77L207.834 116.985L207.896 117.025L207.963 117.058L208.607 115.77ZM209.139 116.125L209.829 114.861L209.806 114.848L209.783 114.837L209.139 116.125ZM213.043 117.722L213.467 116.346L213.45 116.341L213.043 117.722ZM222.715 116.923L222.119 115.613L222.095 115.624L222.071 115.635L222.715 116.923ZM225.998 114.883L225.049 113.799L225.013 113.831L224.979 113.864L225.998 114.883ZM228.216 111.688L226.915 111.072L226.898 111.107L226.883 111.143L228.216 111.688ZM228.216 104.058L229.529 103.467L229.527 103.462L228.216 104.058ZM224.046 99.2663L224.819 98.0515L224.756 98.0116L224.69 97.9783L224.046 99.2663ZM222.626 98.5565L222.035 99.8697L222.063 99.8822L222.091 99.8935L222.626 98.5565ZM213.753 97.1368L214.141 95.7502L214.122 95.7447L214.102 95.7398L213.753 97.1368ZM212.422 96.7819L211.887 98.1189L211.978 98.1552L212.073 98.1789L212.422 96.7819ZM209.583 95.5397L208.939 96.8277L209.243 96.9797H209.583V95.5397ZM207.01 93.9426L206.11 95.0672L206.132 95.0839L207.01 93.9426ZM205.501 92.6116L204.483 93.6299L204.539 93.6863L204.602 93.7361L205.501 92.6116ZM201.952 87.8202L203.24 87.1763L203.231 87.1577L203.221 87.1394L201.952 87.8202ZM201.508 73.0024L202.817 73.6036L202.824 73.5889L202.83 73.574L201.508 73.0024ZM205.59 67.3238L206.553 68.3941L206.581 68.3688L206.608 68.342L205.59 67.3238ZM208.252 65.1055L207.489 63.8844L207.454 63.9058L207.421 63.9291L208.252 65.1055ZM211.446 63.5084L211.981 64.8456L212.005 64.8356L211.446 63.5084ZM231.055 63.952L231.699 62.6641L231.655 62.6419L231.609 62.6228L231.055 63.952ZM231.676 64.307L232.695 63.2887L232.529 63.1235L232.32 63.019L231.676 64.307ZM232.564 64.8393L231.545 65.8576L231.646 65.9584L231.765 66.0375L232.564 64.8393ZM233.362 65.3717L234.38 64.3535L234.28 64.2527L234.161 64.1736L233.362 65.3717ZM233.806 65.8154L232.788 66.8336L232.888 66.9344L233.007 67.0135L233.806 65.8154ZM234.871 67.1463L233.505 67.6017L233.521 67.6516L233.541 67.7001L234.871 67.1463ZM235.226 69.0983L236.646 69.3351L236.654 69.2886L236.658 69.2416L235.226 69.0983ZM234.604 70.8729L233.383 70.1096L233.37 70.1321L234.604 70.8729ZM233.007 72.2926L232.363 71.0046L232.154 71.1091L231.989 71.2744L233.007 72.2926ZM232.919 72.3813L233.403 73.7374L233.708 73.6285L233.937 73.3996L232.919 72.3813ZM230.789 72.7363L230.932 71.3034L230.861 71.2963H230.789V72.7363ZM228.837 72.1151L229.785 71.0314L229.646 70.9098L229.481 70.8272L228.837 72.1151ZM228.305 71.849H226.865V72.7389L227.661 73.1369L228.305 71.849ZM228.305 71.7602H229.745V70.8703L228.949 70.4723L228.305 71.7602ZM224.401 70.1631L224.807 68.7816L224.779 68.7733L224.75 68.7661L224.401 70.1631ZM214.818 70.9617L215.414 72.2726L215.438 72.2616L215.462 72.2496L214.818 70.9617ZM209.228 76.2854L210.516 76.9294L210.528 76.9056L210.539 76.8813L209.228 76.2854ZM209.228 83.9161L207.904 84.4834L207.921 84.5223L207.94 84.5601L209.228 83.9161ZM211.446 87.1104L210.428 88.1286L210.452 88.1529L210.477 88.1759L211.446 87.1104ZM213.487 88.6188L214.324 87.447L214.27 87.4084L214.212 87.375L213.487 88.6188ZM214.818 89.3286L215.385 88.0051L215.355 87.992L215.323 87.9803L214.818 89.3286ZM223.779 90.837L223.397 92.2252L223.446 92.2389L223.497 92.2491L223.779 90.837ZM225.11 91.1032L225.695 89.7873L225.549 89.7225L225.393 89.6912L225.11 91.1032ZM227.506 92.168L228.524 91.1497L228.335 90.9607L228.091 90.8521L227.506 92.168ZM227.861 92.4342L226.843 93.4524L227.02 93.6301L227.248 93.7371L227.861 92.4342ZM230.434 93.9426L231.334 92.8181L231.316 92.8041L231.298 92.7906L230.434 93.9426ZM231.943 95.3622L230.818 96.2618L230.878 96.3361L230.946 96.4019L231.943 95.3622ZM269.994 125.885L269.712 127.297L269.746 127.304L269.781 127.309L269.994 125.885ZM265.025 124.465L264.491 125.803L264.509 125.809L265.025 124.465ZM258.282 119.852L259.346 118.881L259.331 118.865L259.316 118.85L258.282 119.852ZM254.201 112.931L255.57 112.484L255.567 112.475L254.201 112.931ZM252.87 90.4821H254.31V89.0421H252.87V90.4821ZM260.944 82.4077H259.504V83.8477H260.944V82.4077ZM260.944 90.4821V89.0421H259.504V90.4821H260.944ZM263.872 114.084L262.775 115.017L262.779 115.021L263.872 114.084ZM268.131 117.012L268.814 115.744L268.742 115.706L268.666 115.675L268.131 117.012ZM271.237 117.899L271.042 119.327L271.068 119.33L271.237 117.899ZM316.209 83.295L315.635 84.6158L315.659 84.626L316.209 83.295ZM323.219 88.0864L322.171 89.0743L322.2 89.1051L322.231 89.1342L323.219 88.0864ZM328.01 95.096L326.679 95.6459L326.69 95.6702L328.01 95.096ZM328.01 112.31L326.69 111.735L326.684 111.749L328.01 112.31ZM323.219 119.408L322.201 118.39L322.186 118.405L322.171 118.42L323.219 119.408ZM316.209 124.199L315.659 122.868L315.638 122.877L316.209 124.199ZM298.996 124.199L299.567 122.877L299.556 122.873L298.996 124.199ZM287.195 95.096L288.515 95.6702L288.521 95.6562L287.195 95.096ZM298.996 83.295L299.556 84.6217L299.57 84.6156L298.996 83.295ZM313.192 117.012L313.727 118.349L313.763 118.335L313.799 118.318L313.192 117.012ZM317.806 113.907L318.779 114.968L318.802 114.947L318.825 114.925L317.806 113.907ZM320.823 109.293L319.535 108.649L319.508 108.702L319.486 108.758L320.823 109.293ZM320.823 98.1128L319.486 98.6476L319.497 98.675L319.509 98.7019L320.823 98.1128ZM313.192 90.4821L312.603 91.7961L312.63 91.8082L312.658 91.8191L313.192 90.4821ZM302.012 90.4821L302.547 91.8191L302.603 91.7969L302.656 91.7701L302.012 90.4821ZM297.399 93.4989L296.38 92.4807L296.358 92.5028L296.337 92.5259L297.399 93.4989ZM294.293 98.1128L292.987 97.5064L292.971 97.5418L292.956 97.578L294.293 98.1128ZM294.293 109.293L292.969 109.86L292.978 109.88L292.987 109.899L294.293 109.293ZM297.399 113.907L296.337 114.88L296.379 114.926L296.426 114.968L297.399 113.907ZM302.012 117.012L301.406 118.318L301.426 118.327L301.445 118.336L302.012 117.012ZM370.055 85.4245H368.615H370.055ZM370.055 85.8682L368.615 85.8682L370.055 85.8682ZM360.649 90.7483L360.168 89.391L360.144 89.4L360.649 90.7483ZM355.769 93.4989L356.647 94.6403L356.667 94.625L356.686 94.6091L355.769 93.4989ZM352.043 97.4917L350.83 96.7155L350.821 96.7298L350.812 96.7444L352.043 97.4917ZM350.268 102.461L348.836 102.307L348.828 102.384V102.461H350.268ZM350.268 120.828L348.828 120.828L350.268 120.828ZM349.115 83.5612L348.021 84.4984L348.057 84.5404L348.096 84.5795L349.115 83.5612ZM349.736 84.1823L348.448 84.8263L348.6 85.1304L348.872 85.3343L349.736 84.1823ZM351.244 85.2471L350.962 86.6591L351.102 86.6871H351.244V85.2471ZM358.609 82.4965L358.245 81.1031L358.199 81.1152L358.153 81.1304L358.609 82.4965ZM414.318 134.758L412.94 134.339L412.919 134.406L412.906 134.476L414.318 134.758ZM413.874 136.355L412.537 135.82L412.519 135.865L412.504 135.91L413.874 136.355ZM410.413 142.566L411.482 143.531L411.492 143.521L411.502 143.509L410.413 142.566ZM404.38 146.737L403.845 145.4L403.84 145.402L404.38 146.737ZM383.617 144.163L382.644 145.225L382.663 145.242L383.617 144.163ZM379.979 140.082L381.206 139.327L381.192 139.305L381.177 139.283L379.979 140.082ZM386.811 135.468L385.577 136.209L385.583 136.219L386.811 135.468ZM389.473 138.307L390.345 137.161L390.328 137.148L389.473 138.307ZM401.807 138.928L401.222 137.612L401.203 137.621L401.807 138.928ZM405.356 135.912L404.138 135.143L404.127 135.161L404.116 135.179L405.356 135.912ZM406.864 131.475L408.286 131.704L408.292 131.667L408.296 131.628L406.864 131.475ZM405.622 123.046L406.38 124.27L406.401 124.257L406.421 124.244L405.622 123.046ZM401.895 124.82L401.44 123.454L401.422 123.46L401.403 123.467L401.895 124.82ZM387.255 124.199L386.611 125.487L386.642 125.503L386.673 125.516L387.255 124.199ZM381.222 119.408L382.333 118.492L382.311 118.466L382.289 118.441L381.222 119.408ZM377.317 112.398L378.689 111.96L378.684 111.943L377.317 112.398ZM386.989 113.907L385.791 114.705L385.802 114.722L385.814 114.739L386.989 113.907ZM390.538 117.012L391.202 115.735L391.181 115.724L391.159 115.713L390.538 117.012ZM400.831 117.012L400.231 115.703L400.175 115.729L400.122 115.759L400.831 117.012ZM404.38 113.907L403.222 113.051L403.201 113.079L403.182 113.108L404.38 113.907ZM406.509 109.293L405.112 108.943L405.11 108.955L406.509 109.293ZM478.709 86.4006L479.846 87.2848L479.861 87.2646L478.709 86.4006ZM495.745 63.6859L496.897 64.5499L496.916 64.5248L496.933 64.499L495.745 63.6859ZM496.987 120.916L498.425 120.992L498.427 120.954V120.916H496.987ZM489.623 84.3598L488.481 83.4818L488.473 83.4924L489.623 84.3598ZM478.709 98.8227L479.846 99.7068L479.858 99.6901L478.709 98.8227ZM472.143 98.8227L470.99 99.6857L471.006 99.7068L472.143 98.8227ZM461.318 84.3598L462.471 83.4969L462.459 83.4818L461.318 84.3598ZM455.196 63.6859L454.036 64.5401L454.041 64.547L455.196 63.6859ZM472.143 86.4006L470.989 87.2617L470.997 87.2733L471.006 87.2846L472.143 86.4006ZM544.355 124.554L543.802 123.225L543.788 123.231L544.355 124.554ZM528.473 124.199L527.902 125.521L527.913 125.526L528.473 124.199ZM521.463 119.408L520.416 120.397L520.43 120.412L520.445 120.426L521.463 119.408ZM516.761 112.398L515.431 112.952L515.437 112.966L515.443 112.98L516.761 112.398ZM516.761 95.096L518.081 95.6702L518.087 95.6562L516.761 95.096ZM528.473 83.295L527.919 81.9657L527.902 81.973L528.473 83.295ZM544.71 116.036L543.974 114.798L543.962 114.806L543.95 114.813L544.71 116.036ZM549.945 110.624L551.2 111.331L551.211 111.311L549.945 110.624ZM549.945 96.8706L548.677 97.5533L548.68 97.5576L549.945 96.8706ZM544.71 91.3694L543.95 92.5925L543.965 92.6013L544.71 91.3694ZM531.578 90.4821L532.113 91.8191L532.141 91.8082L532.167 91.7961L531.578 90.4821ZM526.964 93.4989L525.946 92.4807L525.924 92.5028L525.903 92.5259L526.964 93.4989ZM523.859 98.1128L522.553 97.5064L522.536 97.5418L522.522 97.578L523.859 98.1128ZM522.794 103.703L524.234 103.703L522.794 103.703ZM523.859 109.293L522.535 109.86L522.544 109.88L522.553 109.899L523.859 109.293ZM526.964 113.907L525.903 114.88L525.945 114.926L525.991 114.968L526.964 113.907ZM531.578 117.012L530.972 118.318L531.007 118.335L531.044 118.349L531.578 117.012ZM593.41 125.885L593.127 127.297L593.161 127.304L593.196 127.309L593.41 125.885ZM588.441 124.465L587.906 125.803L587.924 125.809L588.441 124.465ZM581.697 119.852L582.761 118.881L582.747 118.865L582.732 118.85L581.697 119.852ZM577.616 112.931L578.985 112.484L578.982 112.475L577.616 112.931ZM576.285 90.4821H577.725V89.0421H576.285V90.4821ZM584.359 82.4077H582.919V83.8477H584.359V82.4077ZM584.359 90.4821V89.0421H582.919V90.4821H584.359ZM587.287 114.084L586.19 115.017L586.194 115.021L587.287 114.084ZM591.546 117.012L592.229 115.744L592.157 115.706L592.081 115.675L591.546 117.012ZM594.652 117.899L594.457 119.327L594.484 119.33L594.652 117.899ZM645.392 113.463L644.709 114.731L644.728 114.741L644.748 114.751L645.392 113.463ZM646.279 119.674L645.292 118.625L645.276 118.64L645.261 118.656L646.279 119.674ZM622.234 124.199L622.804 122.877L622.783 122.868L622.234 124.199ZM615.224 119.408L616.272 118.42L616.243 118.389L616.212 118.36L615.224 119.408ZM610.433 112.398L611.764 111.848L611.755 111.827L610.433 112.398ZM610.433 95.096L611.755 95.6669L611.758 95.6599L610.433 95.096ZM615.224 88.0864L616.211 89.135L616.242 89.1056L616.272 89.0743L615.224 88.0864ZM622.234 83.295L622.783 84.6262L622.808 84.6156L622.234 83.295ZM641.754 84.3598L641.04 85.6101L641.044 85.6126L641.754 84.3598ZM646.368 87.7315L647.386 86.7133L647.374 86.7014L647.362 86.6899L646.368 87.7315ZM645.481 94.0313L646.163 95.2992L646.175 95.293L645.481 94.0313ZM640.955 93.4102L639.937 94.4284L639.961 94.4527L639.987 94.4757L640.955 93.4102ZM637.672 91.0145L636.97 92.2715L636.999 92.2877L637.028 92.3025L637.672 91.0145ZM625.339 90.4821L625.866 91.8224L625.915 91.8028L625.964 91.7796L625.339 90.4821ZM620.725 93.5876L621.72 94.6283L621.732 94.6172L621.743 94.6059L620.725 93.5876ZM617.62 98.1128L618.934 98.7019L618.942 98.6828L618.95 98.6634L617.62 98.1128ZM617.62 109.293L618.96 108.766L618.94 108.716L618.917 108.668L617.62 109.293ZM625.339 117.012L625.964 115.715L625.915 115.692L625.866 115.672L625.339 117.012ZM637.672 116.48L637.002 115.206L636.986 115.214L636.97 115.223L637.672 116.48ZM640.867 114.084L639.898 113.019L639.873 113.042L639.848 113.066L640.867 114.084ZM693.736 87.909L692.636 88.8376L692.652 88.8571L692.669 88.876L693.736 87.909ZM697.818 94.8299L696.467 95.3291L696.472 95.3425L697.818 94.8299ZM690.719 97.7579L689.344 98.1847L689.356 98.2217L689.369 98.2581L690.719 97.7579ZM688.324 93.3215L687.152 94.1584L687.189 94.2103L687.23 94.2586L688.324 93.3215ZM684.508 90.3047L683.844 91.5823L683.873 91.5972L683.902 91.6108L684.508 90.3047ZM674.305 90.1272L673.761 88.7936L673.733 88.8053L673.705 88.8181L674.305 90.1272ZM670.578 92.7891L669.533 91.7987L669.491 91.8425L669.453 91.8895L670.578 92.7891ZM668.093 96.7819L669.42 97.343L669.429 97.3211L669.437 97.2988L668.093 96.7819ZM667.029 101.662L665.59 101.612L665.589 101.637V101.662H667.029ZM687.436 83.295L686.817 84.5954L686.841 84.606L687.436 83.295ZM234.223 100.746C235.408 102.955 236.004 105.352 236.004 107.962H238.884C238.884 104.893 238.178 102.025 236.761 99.384L234.223 100.746ZM236.004 107.962C236.004 110.388 235.564 112.515 234.714 114.373L237.334 115.57C238.378 113.287 238.884 110.742 238.884 107.962H236.004ZM234.723 114.355C233.73 116.45 232.48 118.151 230.984 119.487L232.902 121.636C234.718 120.014 236.188 117.989 237.325 115.588L234.723 114.355ZM230.924 119.543C230.105 120.363 229.272 121.031 228.429 121.558L229.955 124.001C231.005 123.345 232.006 122.535 232.961 121.58L230.924 119.543ZM228.41 121.571C227.493 122.164 226.524 122.648 225.5 123.026L226.496 125.728C227.719 125.277 228.879 124.697 229.974 123.989L228.41 121.571ZM225.439 123.05C224.47 123.458 223.123 123.804 221.354 124.061L221.768 126.911C223.667 126.635 225.278 126.242 226.556 125.704L225.439 123.05ZM221.354 124.061C219.566 124.32 218.041 124.445 216.77 124.445V127.325C218.219 127.325 219.889 127.184 221.768 126.911L221.354 124.061ZM216.77 124.445C216.055 124.445 215.259 124.404 214.38 124.319L214.102 127.185C215.057 127.278 215.947 127.325 216.77 127.325V124.445ZM214.38 124.319C213.509 124.234 212.637 124.108 211.764 123.939L211.217 126.767C212.178 126.952 213.14 127.092 214.102 127.185L214.38 124.319ZM211.764 123.939C210.879 123.768 210.01 123.568 209.155 123.34L208.413 126.123C209.333 126.368 210.268 126.583 211.217 126.767L211.764 123.939ZM209.155 123.34C208.319 123.117 207.583 122.871 206.942 122.604L205.835 125.262C206.614 125.587 207.475 125.873 208.413 126.123L209.155 123.34ZM207.033 122.645C206.876 122.567 206.707 122.492 206.533 122.434L205.623 125.166C205.622 125.166 205.633 125.169 205.655 125.179C205.677 125.188 205.706 125.202 205.745 125.221L207.033 122.645ZM206.533 122.434C206.664 122.477 206.745 122.532 206.771 122.551C206.8 122.571 206.805 122.579 206.786 122.56L204.749 124.596C204.919 124.767 205.215 125.03 205.623 125.166L206.533 122.434ZM206.566 122.38C206.205 122.139 205.8 121.894 205.424 121.768L204.513 124.501C204.482 124.49 204.505 124.495 204.602 124.549C204.691 124.598 204.812 124.672 204.969 124.776L206.566 122.38ZM205.613 121.847C205.371 121.726 205.209 121.604 205.1 121.495L203.063 123.532C203.428 123.896 203.857 124.188 204.325 124.422L205.613 121.847ZM205.1 121.495C204.893 121.288 204.612 121.036 204.282 120.871L202.994 123.446C202.96 123.43 202.94 123.416 202.933 123.412C202.926 123.407 202.928 123.408 202.938 123.416C202.96 123.433 203.001 123.469 203.063 123.532L205.1 121.495ZM204.475 120.987C204.333 120.886 204.115 120.652 203.884 120.143L201.262 121.335C201.622 122.127 202.114 122.84 202.801 123.33L204.475 120.987ZM203.889 120.154C203.75 119.841 203.658 119.427 203.658 118.876H200.778C200.778 119.744 200.923 120.572 201.257 121.324L203.889 120.154ZM203.641 119.094C203.735 118.488 203.905 118.11 204.08 117.876L201.776 116.148C201.241 116.861 200.938 117.725 200.795 118.657L203.641 119.094ZM204.108 117.838C204.411 117.404 204.767 117.073 205.177 116.827L203.696 114.358C202.923 114.822 202.273 115.437 201.748 116.186L204.108 117.838ZM205.455 116.611L205.543 116.522L203.507 114.486L203.418 114.574L205.455 116.611ZM205.017 116.857C205.483 116.688 206.051 116.589 206.743 116.589V113.709C205.779 113.709 204.869 113.847 204.033 114.15L205.017 116.857ZM206.743 116.589C206.989 116.589 207.345 116.674 207.834 116.985L209.38 114.555C208.567 114.038 207.681 113.709 206.743 113.709V116.589ZM207.963 117.058C207.981 117.067 207.979 117.067 207.963 117.057C207.949 117.047 207.908 117.018 207.855 116.966L209.891 114.929C209.678 114.716 209.437 114.575 209.251 114.482L207.963 117.058ZM207.855 116.966C208.068 117.179 208.309 117.32 208.495 117.413L209.783 114.837C209.765 114.828 209.767 114.828 209.783 114.838C209.797 114.847 209.838 114.876 209.891 114.929L207.855 116.966ZM208.45 117.389C209.123 117.756 209.724 118.058 210.248 118.287L211.402 115.649C210.98 115.464 210.457 115.203 209.829 114.861L208.45 117.389ZM210.248 118.287C210.808 118.532 211.619 118.804 212.637 119.104L213.45 116.341C212.456 116.048 211.788 115.818 211.402 115.649L210.248 118.287ZM212.62 119.098C213.606 119.402 215 119.517 216.681 119.517V116.637C215.05 116.637 214.019 116.516 213.467 116.346L212.62 119.098ZM216.681 119.517C217.548 119.517 218.616 119.418 219.862 119.236L219.445 116.386C218.266 116.558 217.352 116.637 216.681 116.637V119.517ZM219.862 119.236C221.18 119.043 222.357 118.712 223.359 118.211L222.071 115.635C221.416 115.963 220.552 116.224 219.445 116.386L219.862 119.236ZM223.311 118.234C223.991 117.925 224.617 117.612 225.189 117.295L223.79 114.777C223.297 115.052 222.74 115.33 222.119 115.613L223.311 118.234ZM225.189 117.295C225.849 116.928 226.457 116.46 227.016 115.901L224.979 113.864C224.592 114.252 224.194 114.553 223.79 114.777L225.189 117.295ZM226.946 115.966C228.08 114.974 228.942 113.717 229.549 112.234L226.883 111.143C226.425 112.262 225.809 113.135 225.049 113.799L226.946 115.966ZM229.517 112.305C230.153 110.963 230.454 109.476 230.454 107.873H227.574C227.574 109.11 227.344 110.166 226.915 111.072L229.517 112.305ZM230.454 107.873C230.454 106.319 230.149 104.845 229.529 103.467L226.903 104.649C227.347 105.637 227.574 106.706 227.574 107.873H230.454ZM229.527 103.462C229.2 102.742 228.831 102.084 228.416 101.497L226.063 103.158C226.359 103.576 226.641 104.072 226.905 104.654L229.527 103.462ZM228.416 101.497C228.01 100.922 227.542 100.371 227.016 99.8452L224.979 101.882C225.4 102.302 225.76 102.728 226.063 103.158L228.416 101.497ZM227.016 99.8452C226.305 99.134 225.573 98.5315 224.819 98.0515L223.273 100.481C223.82 100.829 224.389 101.292 224.979 101.882L227.016 99.8452ZM224.69 97.9783C224.474 97.8707 224.276 97.7649 224.095 97.6611L222.666 100.162C222.898 100.295 223.144 100.425 223.402 100.554L224.69 97.9783ZM224.095 97.6611C223.814 97.501 223.499 97.3549 223.161 97.2195L222.091 99.8935C222.344 99.9947 222.532 100.085 222.666 100.162L224.095 97.6611ZM223.217 97.2433C221.824 96.6164 220.287 96.3179 218.633 96.3179V99.1979C219.937 99.1979 221.062 99.4318 222.035 99.8697L223.217 97.2433ZM218.633 96.3179C216.97 96.3179 215.476 96.1238 214.141 95.7502L213.365 98.5235C214.988 98.9779 216.747 99.1979 218.633 99.1979V96.3179ZM214.102 95.7398C213.879 95.684 213.673 95.629 213.483 95.5748L212.692 98.344C212.916 98.408 213.154 98.4713 213.404 98.5338L214.102 95.7398ZM213.483 95.5748C213.259 95.5107 213.022 95.4474 212.771 95.3849L212.073 98.1789C212.296 98.2347 212.502 98.2897 212.692 98.344L213.483 95.5748ZM212.957 95.4449C212.099 95.1019 211.338 94.7631 210.67 94.4292L209.382 97.0051C210.134 97.3811 210.97 97.752 211.887 98.1189L212.957 95.4449ZM210.67 94.4292C210.536 94.3622 210.4 94.2979 210.273 94.2471C210.21 94.2218 210.129 94.1918 210.039 94.1662C209.972 94.1469 209.799 94.0997 209.583 94.0997V96.9797C209.477 96.9797 209.396 96.9673 209.352 96.9592C209.304 96.9506 209.268 96.941 209.248 96.9354C209.21 96.9246 209.192 96.9168 209.203 96.9211C209.224 96.9294 209.28 96.9538 209.382 97.0051L210.67 94.4292ZM210.227 94.2517C209.355 93.8161 208.577 93.3317 207.888 92.8012L206.132 95.0839C206.98 95.7365 207.917 96.3169 208.939 96.8277L210.227 94.2517ZM207.909 92.8181C207.644 92.6056 207.434 92.4193 207.274 92.2589L205.237 94.2953C205.491 94.549 205.784 94.8063 206.11 95.067L207.909 92.8181ZM207.274 92.2589C207.02 92.0052 206.727 91.7479 206.401 91.4872L204.602 93.7361C204.867 93.9486 205.077 94.1349 205.237 94.2953L207.274 92.2589ZM206.519 91.5934C205.915 90.9888 205.318 90.3097 204.73 89.5537L202.457 91.3218C203.111 92.1629 203.786 92.933 204.483 93.6299L206.519 91.5934ZM204.73 89.5537C204.17 88.8333 203.673 88.0418 203.24 87.1763L200.664 88.4642C201.178 89.4916 201.775 90.4451 202.457 91.3218L204.73 89.5537ZM203.221 87.1394C202.036 84.9302 201.44 82.5329 201.44 79.9233H198.56C198.56 82.9925 199.266 85.8597 200.683 88.5011L203.221 87.1394ZM201.44 79.9233C201.44 77.7041 201.899 75.6024 202.817 73.6036L200.2 72.4012C199.107 74.7798 198.56 77.292 198.56 79.9233H201.44ZM202.83 73.574C203.694 71.5757 204.932 69.8529 206.553 68.3941L204.627 66.2534C202.698 67.9889 201.215 70.0519 200.187 72.4309L202.83 73.574ZM206.608 68.342C207.312 67.638 208.135 66.9506 209.082 66.282L207.421 63.9291C206.357 64.6802 205.406 65.4716 204.572 66.3055L206.608 68.342ZM209.015 66.3266C209.88 65.7863 210.866 65.2912 211.981 64.8454L210.911 62.1714C209.66 62.672 208.517 63.2417 207.489 63.8844L209.015 66.3266ZM212.005 64.8356C212.971 64.4287 214.331 64.0819 216.131 63.8248L215.723 60.9738C213.796 61.249 212.169 61.6417 210.887 62.1812L212.005 64.8356ZM216.131 63.8248C217.953 63.5644 219.463 63.44 220.674 63.44V60.56C219.282 60.56 217.627 60.7018 215.723 60.9738L216.131 63.8248ZM220.674 63.44C221.389 63.44 222.185 63.4813 223.064 63.5664L223.341 60.6998C222.387 60.6074 221.497 60.56 220.674 60.56V63.44ZM223.064 63.5664C223.935 63.6507 224.807 63.7772 225.68 63.9461L226.227 61.1186C225.266 60.9326 224.304 60.793 223.341 60.6998L223.064 63.5664ZM225.68 63.9461C226.564 64.1174 227.434 64.317 228.289 64.5449L229.031 61.7621C228.111 61.5168 227.176 61.3023 226.227 61.1186L225.68 63.9461ZM228.289 64.5449C229.125 64.7679 229.861 65.0145 230.501 65.2813L231.609 62.6228C230.83 62.2981 229.969 62.0122 229.031 61.7621L228.289 64.5449ZM230.411 65.24C230.488 65.2785 230.538 65.3084 230.567 65.3277L232.165 62.9314C232.016 62.8323 231.859 62.7439 231.699 62.6641L230.411 65.24ZM230.567 65.3277C230.716 65.4267 230.873 65.5151 231.032 65.5949L232.32 63.019C232.243 62.9805 232.194 62.9506 232.165 62.9314L230.567 65.3277ZM230.658 65.3252C230.952 65.6194 231.3 65.8178 231.665 65.9393L232.575 63.207C232.578 63.2079 232.594 63.2134 232.617 63.2275C232.641 63.2418 232.668 63.2621 232.695 63.2887L230.658 65.3252ZM231.665 65.9393C231.662 65.9384 231.647 65.9329 231.623 65.9189C231.599 65.9045 231.572 65.8842 231.545 65.8576L233.582 63.8211C233.288 63.5269 232.94 63.3285 232.575 63.207L231.665 65.9393ZM231.765 66.0375L232.563 66.5699L234.161 64.1736L233.362 63.6412L231.765 66.0375ZM232.344 66.39L232.788 66.8336L234.824 64.7971L234.38 64.3535L232.344 66.39ZM233.007 67.0135C233.312 67.2169 233.442 67.4149 233.505 67.6017L236.237 66.6909C235.944 65.8129 235.364 65.1236 234.605 64.6172L233.007 67.0135ZM233.541 67.7001C233.772 68.2526 233.822 68.6605 233.793 68.9551L236.658 69.2416C236.747 68.3532 236.561 67.4597 236.2 66.5925L233.541 67.7001ZM233.805 68.8616C233.709 69.4363 233.554 69.8364 233.383 70.1097L235.826 71.6361C236.246 70.9631 236.505 70.1801 236.646 69.3351L233.805 68.8616ZM233.37 70.1321C233.176 70.455 232.866 70.7533 232.363 71.0046L233.651 73.5806C234.568 73.122 235.323 72.4739 235.839 71.6138L233.37 70.1321ZM231.989 71.2744L231.9 71.3631L233.937 73.3996L234.026 73.3108L231.989 71.2744ZM232.434 71.0252C231.719 71.2808 231.235 71.3336 230.932 71.3034L230.646 74.1691C231.527 74.2572 232.462 74.0734 233.403 73.7374L232.434 71.0252ZM230.789 71.2963C230.197 71.2963 229.922 71.1512 229.785 71.0314L227.889 73.1989C228.698 73.9072 229.725 74.1763 230.789 74.1763V71.2963ZM229.481 70.8272L228.949 70.561L227.661 73.1369L228.193 73.4031L229.481 70.8272ZM229.745 71.849V71.7602H226.865V71.849H229.745ZM228.949 70.4723C228.349 70.1723 227.791 69.901 227.276 69.6587L226.05 72.2646C226.541 72.4955 227.078 72.7566 227.661 73.0482L228.949 70.4723ZM227.276 69.6587C226.672 69.3742 225.833 69.0834 224.807 68.7816L223.994 71.5446C224.979 71.8343 225.649 72.0759 226.05 72.2646L227.276 69.6587ZM224.75 68.7661C224.208 68.6307 223.642 68.5313 223.051 68.4657L222.733 71.3281C223.208 71.3808 223.646 71.4589 224.051 71.5601L224.75 68.7661ZM223.051 68.4657C222.443 68.3982 221.674 68.3682 220.763 68.3682V71.2482C221.626 71.2482 222.276 71.2774 222.733 71.3281L223.051 68.4657ZM220.763 68.3682C219.894 68.3682 218.841 68.4674 217.621 68.6503L218.048 71.4984C219.195 71.3265 220.093 71.2482 220.763 71.2482V68.3682ZM217.621 68.6503C216.33 68.844 215.17 69.1755 214.174 69.6737L215.462 72.2496C216.122 71.9197 216.974 71.6596 218.048 71.4984L217.621 68.6503ZM214.222 69.6507C213.533 69.9641 212.884 70.2959 212.277 70.6471L213.72 73.1395C214.238 72.84 214.802 72.5508 215.414 72.2726L214.222 69.6507ZM212.277 70.6471C211.604 71.0371 210.987 71.5139 210.428 72.0729L212.464 74.1094C212.852 73.722 213.27 73.4002 213.72 73.1395L212.277 70.6471ZM210.428 72.0729C209.902 72.5992 209.434 73.1495 209.027 73.7248L211.38 75.3856C211.684 74.9553 212.044 74.5296 212.464 74.1094L210.428 72.0729ZM209.027 73.7248C208.613 74.312 208.244 74.9695 207.917 75.6895L210.539 76.8813C210.803 76.3 211.085 75.804 211.38 75.3856L209.027 73.7248ZM207.94 75.6414C207.286 76.9487 206.989 78.4514 206.989 80.1008H209.869C209.869 78.7925 210.105 77.7517 210.516 76.9294L207.94 75.6414ZM206.989 80.1008C206.989 81.6047 207.298 83.069 207.904 84.4834L210.551 83.3489C210.093 82.2789 209.869 81.1996 209.869 80.1008H206.989ZM207.94 84.5601C208.644 85.9678 209.467 87.1682 210.428 88.1286L212.464 86.0922C211.768 85.3963 211.113 84.4673 210.516 83.2722L207.94 84.5601ZM210.477 88.1759C211.198 88.8305 211.959 89.3944 212.761 89.8626L214.212 87.375C213.595 87.0151 212.996 86.5733 212.415 86.0449L210.477 88.1759ZM212.65 89.7906C213.166 90.1589 213.72 90.4551 214.312 90.677L215.323 87.9803C214.969 87.8473 214.636 87.6702 214.324 87.447L212.65 89.7906ZM214.251 90.6522C215.688 91.2684 217.244 91.5672 218.899 91.5672V88.6872C217.597 88.6872 216.432 88.4537 215.385 88.0051L214.251 90.6522ZM218.899 91.5672C220.29 91.5672 221.787 91.7811 223.397 92.2252L224.162 89.4489C222.341 88.9465 220.585 88.6872 218.899 88.6872V91.5672ZM223.497 92.2491L224.828 92.5153L225.393 89.6912L224.062 89.425L223.497 92.2491ZM224.526 92.4191L226.921 93.4839L228.091 90.8521L225.695 89.7873L224.526 92.4191ZM226.488 93.1862C226.629 93.3272 226.811 93.4747 227.04 93.589L228.328 91.0131C228.438 91.0683 228.502 91.1271 228.524 91.1497L226.488 93.1862ZM227.04 93.589C226.929 93.5339 226.865 93.475 226.843 93.4524L228.879 91.4159C228.738 91.275 228.556 91.1274 228.328 91.0131L227.04 93.589ZM227.248 93.7371C228.186 94.1786 228.955 94.6334 229.57 95.0946L231.298 92.7906C230.493 92.187 229.547 91.6362 228.474 91.1312L227.248 93.7371ZM229.535 95.067C229.817 95.293 230.067 95.5011 230.284 95.6917L232.181 93.5243C231.926 93.3009 231.643 93.0654 231.334 92.8181L229.535 95.067ZM230.284 95.6917C230.446 95.8327 230.624 96.0195 230.818 96.2618L233.067 94.4627C232.788 94.1134 232.493 93.7974 232.181 93.5243L230.284 95.6917ZM230.946 96.4019C232.253 97.6546 233.345 99.0993 234.221 100.743L236.762 99.3872C235.746 97.4813 234.471 95.7909 232.939 94.3226L230.946 96.4019ZM273.168 121.892C273.168 122.631 272.897 123.251 272.24 123.825L274.137 125.993C275.373 124.911 276.048 123.519 276.048 121.892H273.168ZM272.24 123.825C271.594 124.391 270.949 124.572 270.208 124.461L269.781 127.309C271.406 127.553 272.891 127.083 274.137 125.993L272.24 123.825ZM270.277 124.473C269.426 124.303 268.606 124.105 267.817 123.879L267.026 126.649C267.893 126.896 268.788 127.112 269.712 127.297L270.277 124.473ZM267.817 123.879C267.028 123.654 266.27 123.401 265.542 123.121L264.509 125.809C265.319 126.121 266.158 126.401 267.026 126.649L267.817 123.879ZM265.56 123.128C263.089 122.14 261.026 120.723 259.346 118.881L257.218 120.822C259.206 123.002 261.638 124.661 264.491 125.802L265.56 123.128ZM259.316 118.85C257.648 117.127 256.395 115.015 255.57 112.484L252.831 113.377C253.781 116.288 255.249 118.79 257.248 120.853L259.316 118.85ZM255.567 112.475C254.732 109.971 254.31 107.286 254.31 104.413H251.43C251.43 107.573 251.895 110.567 252.834 113.386L255.567 112.475ZM254.31 104.413V90.4821H251.43V104.413H254.31ZM252.87 89.0421H247.723V91.9221H252.87V89.0421ZM247.723 89.0421C246.967 89.0421 246.391 88.7994 245.902 88.3104L243.866 90.3469C244.915 91.3959 246.232 91.9221 247.723 91.9221V89.0421ZM245.902 88.3104C245.413 87.8214 245.17 87.2456 245.17 86.4893H242.29C242.29 87.9808 242.817 89.2979 243.866 90.3469L245.902 88.3104ZM245.17 86.4893C245.17 85.6512 245.428 85.0533 245.902 84.5795L243.866 82.543C242.802 83.6071 242.29 84.9613 242.29 86.4893H245.17ZM245.902 84.5795C246.391 84.0905 246.967 83.8477 247.723 83.8477V80.9677C246.232 80.9677 244.915 81.494 243.866 82.543L245.902 84.5795ZM247.723 83.8477H248.877V80.9677H247.723V83.8477ZM248.877 83.8477C250.368 83.8477 251.685 83.3215 252.734 82.2725L250.698 80.236C250.209 80.725 249.633 80.9677 248.877 80.9677V83.8477ZM252.734 82.2725C253.783 81.2235 254.31 79.9065 254.31 78.4149H251.43C251.43 79.1712 251.187 79.747 250.698 80.236L252.734 82.2725ZM254.31 78.4149V73.6235H251.43V78.4149H254.31ZM254.31 73.6235C254.31 72.8836 254.556 72.2881 255.086 71.7581L253.049 69.7216C251.982 70.7888 251.43 72.1156 251.43 73.6235H254.31ZM255.086 71.7581C255.616 71.2281 256.211 70.982 256.951 70.982V68.102C255.443 68.102 254.116 68.6545 253.049 69.7216L255.086 71.7581ZM256.951 70.982C257.69 70.982 258.26 71.2264 258.753 71.7387L260.828 69.741C259.783 68.6562 258.46 68.102 256.951 68.102V70.982ZM258.753 71.7387C259.26 72.2648 259.504 72.8664 259.504 73.6235H262.384C262.384 72.1329 261.859 70.812 260.828 69.741L258.753 71.7387ZM259.504 73.6235V82.4077H262.384V73.6235H259.504ZM260.944 83.8477H273.721V80.9677H260.944V83.8477ZM273.721 83.8477C274.477 83.8477 275.053 84.0905 275.542 84.5795L277.579 82.543C276.53 81.494 275.212 80.9677 273.721 80.9677V83.8477ZM275.542 84.5795C276.016 85.0533 276.274 85.6512 276.274 86.4893H279.154C279.154 84.9613 278.643 83.6071 277.579 82.543L275.542 84.5795ZM276.274 86.4893C276.274 87.2456 276.031 87.8214 275.542 88.3104L277.579 90.3469C278.628 89.2979 279.154 87.9808 279.154 86.4893H276.274ZM275.542 88.3104C275.053 88.7994 274.477 89.0421 273.721 89.0421V91.9221C275.212 91.9221 276.53 91.3959 277.579 90.3469L275.542 88.3104ZM273.721 89.0421H260.944V91.9221H273.721V89.0421ZM259.504 90.4821V104.413H262.384V90.4821H259.504ZM259.504 104.413C259.504 106.372 259.757 108.275 260.266 110.119L263.042 109.353C262.604 107.767 262.384 106.121 262.384 104.413H259.504ZM260.266 110.119C260.786 112.007 261.615 113.652 262.775 115.017L264.969 113.152C264.118 112.15 263.467 110.896 263.042 109.353L260.266 110.119ZM262.779 115.021C264.018 116.467 265.642 117.568 267.596 118.349L268.666 115.675C267.071 115.037 265.855 114.185 264.965 113.147L262.779 115.021ZM267.448 118.28C268.425 118.806 269.647 119.136 271.042 119.326L271.431 116.473C270.223 116.308 269.375 116.046 268.814 115.744L267.448 118.28ZM271.068 119.33C271.71 119.405 272.178 119.667 272.556 120.135L274.797 118.326C273.933 117.256 272.774 116.63 271.405 116.469L271.068 119.33ZM272.556 120.135C272.967 120.643 273.168 121.21 273.168 121.892H276.048C276.048 120.564 275.629 119.356 274.797 118.326L272.556 120.135ZM307.602 82.9605C310.425 82.9605 313.098 83.5127 315.635 84.6156L316.783 81.9745C313.878 80.7113 310.813 80.0805 307.602 80.0805V82.9605ZM315.659 84.626C318.199 85.6748 320.364 87.1574 322.171 89.0743L324.267 87.0986C322.17 84.8747 319.662 83.1631 316.759 81.9641L315.659 84.626ZM322.231 89.1342C324.148 90.9415 325.63 93.1065 326.679 95.6458L329.341 94.5463C328.142 91.6435 326.431 89.1355 324.207 87.0387L322.231 89.1342ZM326.69 95.6702C327.793 98.207 328.345 100.88 328.345 103.703H331.225C331.225 100.492 330.594 97.4272 329.331 94.5219L326.69 95.6702ZM328.345 103.703C328.345 106.525 327.793 109.199 326.69 111.735L329.331 112.884C330.594 109.978 331.225 106.914 331.225 103.703H328.345ZM326.684 111.749C325.633 114.238 324.141 116.449 322.201 118.39L324.237 120.426C326.437 118.226 328.14 115.705 329.337 112.87L326.684 111.749ZM322.171 118.42C320.364 120.337 318.199 121.819 315.659 122.868L316.759 125.53C319.662 124.331 322.17 122.62 324.267 120.396L322.171 118.42ZM315.638 122.877C313.234 123.915 310.562 124.445 307.602 124.445V127.325C310.913 127.325 313.979 126.731 316.78 125.521L315.638 122.877ZM307.602 124.445C304.643 124.445 301.971 123.915 299.567 122.877L298.425 125.521C301.226 126.731 304.292 127.325 307.602 127.325V124.445ZM299.556 122.873C297.067 121.822 294.856 120.33 292.916 118.39L290.879 120.426C293.079 122.626 295.6 124.329 298.436 125.526L299.556 122.873ZM292.916 118.39C291.98 117.454 291.157 116.438 290.443 115.34L288.028 116.91C288.852 118.178 289.803 119.35 290.879 120.426L292.916 118.39ZM290.443 115.34C289.72 114.227 289.077 113.026 288.515 111.735L285.874 112.884C286.496 114.314 287.213 115.656 288.028 116.91L290.443 115.34ZM288.515 111.735C287.412 109.199 286.86 106.525 286.86 103.703H283.98C283.98 106.914 284.611 109.978 285.874 112.884L288.515 111.735ZM286.86 103.703C286.86 100.88 287.412 98.207 288.515 95.6702L285.874 94.5219C284.611 97.4272 283.98 100.492 283.98 103.703H286.86ZM288.521 95.6562C289.574 93.1627 291.038 90.9824 292.916 89.1047L290.879 87.0682C288.734 89.2129 287.063 91.7056 285.868 94.5359L288.521 95.6562ZM292.916 89.1047C294.856 87.1639 297.067 85.6723 299.556 84.6216L298.436 81.9684C295.6 83.1656 293.079 84.8682 290.879 87.0682L292.916 89.1047ZM299.57 84.6156C302.107 83.5127 304.78 82.9605 307.602 82.9605V80.0805C304.391 80.0805 301.327 80.7113 298.422 81.9745L299.57 84.6156ZM307.602 119.517C309.734 119.517 311.779 119.129 313.727 118.349L312.658 115.675C311.057 116.316 309.375 116.637 307.602 116.637V119.517ZM313.799 118.318C315.596 117.484 317.257 116.364 318.779 114.968L316.833 112.845C315.517 114.052 314.101 115.003 312.586 115.706L313.799 118.318ZM318.825 114.925C319.545 114.204 320.185 113.417 320.742 112.565L318.331 110.989C317.883 111.675 317.369 112.308 316.788 112.888L318.825 114.925ZM320.742 112.565C321.299 111.713 321.771 110.8 322.16 109.828L319.486 108.758C319.165 109.56 318.78 110.303 318.331 110.989L320.742 112.565ZM322.111 109.937C322.587 108.984 322.925 107.969 323.126 106.896L320.295 106.365C320.141 107.186 319.887 107.945 319.535 108.649L322.111 109.937ZM323.126 106.896C323.32 105.859 323.417 104.794 323.417 103.703H320.537C320.537 104.623 320.455 105.51 320.295 106.365L323.126 106.896ZM323.417 103.703C323.417 101.503 322.995 99.4372 322.137 97.5238L319.509 98.7019C320.189 100.219 320.537 101.88 320.537 103.703H323.417ZM322.16 97.578C321.771 96.6057 321.299 95.6923 320.742 94.8404L318.331 96.4165C318.78 97.1025 319.165 97.8454 319.486 98.6476L322.16 97.578ZM320.742 94.8404C320.185 93.9883 319.545 93.2013 318.825 92.4807L316.788 94.5172C317.369 95.0979 317.883 95.7306 318.331 96.4165L320.742 94.8404ZM318.825 92.4807C318.104 91.76 317.317 91.1206 316.465 90.5635L314.889 92.9739C315.575 93.4224 316.207 93.9364 316.788 94.5172L318.825 92.4807ZM316.465 90.5635C315.613 90.0064 314.7 89.534 313.727 89.1451L312.658 91.8191C313.46 92.14 314.203 92.5254 314.889 92.9739L316.465 90.5635ZM313.781 89.1681C311.868 88.3104 309.802 87.8886 307.602 87.8886V90.7686C309.425 90.7686 311.086 91.1159 312.603 91.7961L313.781 89.1681ZM307.602 87.8886C306.512 87.8886 305.447 87.9849 304.409 88.1795L304.94 91.0102C305.795 90.8498 306.682 90.7686 307.602 90.7686V87.8886ZM304.409 88.1795C303.336 88.3806 302.321 88.7179 301.369 89.1941L302.656 91.7701C303.36 91.4182 304.12 91.164 304.94 91.0102L304.409 88.1795ZM301.478 89.1451C300.505 89.534 299.592 90.0064 298.74 90.5635L300.316 92.9739C301.002 92.5254 301.745 92.14 302.547 91.8191L301.478 89.1451ZM298.74 90.5635C297.888 91.1206 297.101 91.76 296.38 92.4807L298.417 94.5172C298.998 93.9364 299.63 93.4224 300.316 92.9739L298.74 90.5635ZM296.337 92.5259C294.941 94.0485 293.821 95.709 292.987 97.5064L295.599 98.7192C296.303 97.2042 297.253 95.7887 298.46 94.472L296.337 92.5259ZM292.956 97.578C292.177 99.5264 291.788 101.572 291.788 103.703H294.668C294.668 101.93 294.99 100.248 295.63 98.6476L292.956 97.578ZM291.788 103.703C291.788 105.939 292.172 108 292.969 109.86L295.617 108.725C294.994 107.273 294.668 105.607 294.668 103.703H291.788ZM292.987 109.899C293.821 111.697 294.941 113.357 296.337 114.88L298.46 112.934C297.253 111.617 296.303 110.201 295.599 108.686L292.987 109.899ZM296.426 114.968C297.948 116.364 299.609 117.484 301.406 118.318L302.619 115.706C301.104 115.003 299.688 114.052 298.372 112.845L296.426 114.968ZM301.445 118.336C303.306 119.133 305.366 119.517 307.602 119.517V116.637C305.698 116.637 304.032 116.311 302.58 115.689L301.445 118.336ZM366.151 82.9605C366.824 82.9605 367.378 83.1868 367.883 83.6922L369.92 81.6557C368.887 80.6231 367.606 80.0805 366.151 80.0805V82.9605ZM367.883 83.6922C368.388 84.1976 368.615 84.7508 368.615 85.4245L371.495 85.4245C371.495 83.9688 370.952 82.6883 369.92 81.6557L367.883 83.6922ZM368.615 85.4245V85.8682H371.495V85.4245H368.615ZM368.615 85.8682C368.615 86.542 368.388 87.0952 367.883 87.6006L369.92 89.637C370.952 88.6045 371.495 87.3239 371.495 85.8682L368.615 85.8682ZM367.883 87.6006C367.378 88.106 366.824 88.3323 366.151 88.3323V91.2123C367.606 91.2123 368.887 90.6696 369.92 89.637L367.883 87.6006ZM366.151 88.3323H366.062V91.2123H366.151V88.3323ZM366.062 88.3323C364.108 88.3323 362.141 88.6909 360.168 89.3912L361.131 92.1054C362.825 91.5043 364.466 91.2123 366.062 91.2123V88.3323ZM360.144 89.4C358.123 90.1578 356.352 91.1496 354.852 92.3887L356.686 94.6091C357.907 93.6004 359.39 92.7585 361.155 92.0966L360.144 89.4ZM354.891 92.3575C353.235 93.6314 351.875 95.0826 350.83 96.7155L353.256 98.268C354.103 96.9433 355.227 95.7325 356.647 94.6403L354.891 92.3575ZM350.812 96.7444C349.714 98.5521 349.04 100.409 348.836 102.307L351.7 102.614C351.851 101.2 352.36 99.7439 353.274 98.2391L350.812 96.7444ZM348.828 102.461V120.828H351.708V102.461H348.828ZM348.828 120.828C348.828 121.567 348.582 122.163 348.052 122.693L350.089 124.729C351.156 123.662 351.708 122.335 351.708 120.828L348.828 120.828ZM348.052 122.693C347.522 123.223 346.927 123.469 346.187 123.469V126.349C347.694 126.349 349.021 125.797 350.089 124.729L348.052 122.693ZM346.187 123.469C345.447 123.469 344.851 123.223 344.321 122.693L342.285 124.729C343.352 125.797 344.679 126.349 346.187 126.349V123.469ZM344.321 122.693C343.791 122.163 343.545 121.567 343.545 120.828H340.665C340.665 122.335 341.217 123.662 342.285 124.729L344.321 122.693ZM343.545 120.828V86.4893H340.665V120.828H343.545ZM343.545 86.4893C343.545 85.6512 343.803 85.0533 344.277 84.5795L342.24 82.543C341.176 83.6071 340.665 84.9613 340.665 86.4893H343.545ZM344.277 84.5795C344.847 84.0087 345.462 83.759 346.187 83.759V80.879C344.663 80.879 343.326 81.4575 342.24 82.543L344.277 84.5795ZM346.187 83.759C347.074 83.759 347.625 84.0357 348.021 84.4984L350.208 82.6241C349.185 81.4304 347.784 80.879 346.187 80.879V83.759ZM348.096 84.5795C348.257 84.7398 348.426 84.8893 348.606 85.0238L350.334 82.7198C350.276 82.6768 350.209 82.6193 350.133 82.543L348.096 84.5795ZM348.606 85.0238C348.566 84.9944 348.5 84.9305 348.448 84.8263L351.024 83.5383C350.853 83.1975 350.609 82.9266 350.334 82.7198L348.606 85.0238ZM348.872 85.3343C349.047 85.466 349.233 85.6271 349.427 85.8217L351.464 83.7852C351.185 83.5066 350.897 83.2536 350.6 83.0303L348.872 85.3343ZM349.427 85.8217C349.842 86.2365 350.357 86.5382 350.962 86.6591L351.527 83.8351C351.526 83.835 351.526 83.8353 351.522 83.833C351.517 83.8301 351.497 83.8182 351.464 83.7852L349.427 85.8217ZM351.244 86.6871H351.688V83.8071H351.244V86.6871ZM351.688 86.6871C352.349 86.6871 352.991 86.4717 353.574 86.1801L352.286 83.6042C351.923 83.7859 351.737 83.8071 351.688 83.8071V86.6871ZM353.574 86.1801C353.916 86.0094 354.334 85.8075 354.83 85.574L353.603 82.9681C353.094 83.2078 352.654 83.4201 352.286 83.6042L353.574 86.1801ZM354.83 85.574C355.323 85.342 355.831 85.1097 356.354 84.8771L355.185 82.2453C354.643 82.486 354.116 82.7269 353.603 82.9681L354.83 85.574ZM356.354 84.8771C356.855 84.6545 357.337 84.4618 357.801 84.298L356.843 81.5822C356.301 81.7734 355.748 81.9947 355.185 82.2453L356.354 84.8771ZM357.801 84.298C358.299 84.1223 358.72 83.9774 359.064 83.8626L358.153 81.1304C357.788 81.2522 357.351 81.403 356.843 81.5822L357.801 84.298ZM358.972 83.8898C360.28 83.5488 361.503 83.3107 362.643 83.1717L362.294 80.3129C361.009 80.4696 359.659 80.7343 358.245 81.1031L358.972 83.8898ZM362.643 83.1717C363.799 83.0306 364.939 82.9605 366.062 82.9605V80.0805C364.819 80.0805 363.563 80.1582 362.294 80.3129L362.643 83.1717ZM366.062 82.9605H366.151V80.0805H366.062V82.9605ZM411.301 83.8477C412.122 83.8477 412.714 84.1082 413.192 84.6044L415.266 82.6068C414.206 81.5059 412.846 80.9677 411.301 80.9677V83.8477ZM413.192 84.6044C413.698 85.1306 413.942 85.7322 413.942 86.4893H416.822C416.822 84.9986 416.297 83.6777 415.266 82.6068L413.192 84.6044ZM413.942 86.4893V126.506H416.822V86.4893H413.942ZM413.942 126.506C413.942 127.814 413.871 129.139 413.729 130.48L416.592 130.784C416.746 129.345 416.822 127.919 416.822 126.506H413.942ZM413.729 130.48C413.591 131.778 413.328 133.064 412.94 134.339L415.695 135.177C416.135 133.731 416.435 132.267 416.592 130.784L413.729 130.48ZM412.906 134.476C412.85 134.754 412.796 134.997 412.743 135.207L415.537 135.906C415.603 135.643 415.667 135.354 415.73 135.04L412.906 134.476ZM412.743 135.207C412.704 135.365 412.638 135.568 412.537 135.82L415.211 136.89C415.347 136.551 415.458 136.221 415.537 135.906L412.743 135.207ZM412.504 135.91C411.791 138.104 410.73 140.003 409.325 141.623L411.502 143.509C413.173 141.581 414.419 139.338 415.243 136.8L412.504 135.91ZM409.345 141.601C407.841 143.267 406.014 144.532 403.845 145.4L404.915 148.074C407.478 147.048 409.674 145.533 411.482 143.531L409.345 141.601ZM403.84 145.402C401.568 146.321 398.802 146.805 395.507 146.805V149.685C399.073 149.685 402.223 149.163 404.92 148.071L403.84 145.402ZM395.507 146.805C390.941 146.805 387.338 145.532 384.571 143.085L382.663 145.242C386.049 148.237 390.372 149.685 395.507 149.685V146.805ZM384.59 143.102C383.902 142.471 383.26 141.843 382.662 141.217L380.579 143.206C381.224 143.881 381.912 144.554 382.644 145.225L384.59 143.102ZM382.662 141.217C382.111 140.64 381.626 140.01 381.206 139.327L378.753 140.837C379.279 141.691 379.888 142.481 380.579 143.206L382.662 141.217ZM381.177 139.283C380.837 138.772 380.709 138.321 380.709 137.908H377.829C377.829 138.973 378.175 139.972 378.781 140.881L381.177 139.283ZM380.709 137.908C380.709 137.41 380.826 136.978 381.052 136.582L378.552 135.153C378.068 135.999 377.829 136.927 377.829 137.908H380.709ZM381.052 136.582C381.291 136.163 381.621 135.808 382.065 135.513L380.467 133.116C379.668 133.649 379.022 134.329 378.552 135.153L381.052 136.582ZM382.065 135.513C382.424 135.273 382.864 135.133 383.44 135.133V132.253C382.36 132.253 381.35 132.527 380.467 133.116L382.065 135.513ZM383.44 135.133C383.864 135.133 384.289 135.228 384.728 135.437L385.967 132.837C385.163 132.454 384.317 132.253 383.44 132.253V135.133ZM384.728 135.437C385.093 135.611 385.367 135.859 385.577 136.209L388.046 134.727C387.546 133.893 386.844 133.255 385.967 132.837L384.728 135.437ZM385.583 136.219C386.342 137.46 387.363 138.541 388.619 139.467L390.328 137.148C389.336 136.417 388.583 135.605 388.04 134.717L385.583 136.219ZM388.602 139.454C390.409 140.827 392.763 141.433 395.507 141.433V138.553C393.164 138.553 391.495 138.035 390.345 137.161L388.602 139.454ZM395.507 141.433C398.271 141.433 400.606 141.069 402.41 140.236L401.203 137.621C399.932 138.208 398.067 138.553 395.507 138.553V141.433ZM402.392 140.244C404.218 139.432 405.651 138.242 406.596 136.644L404.116 135.179C403.522 136.184 402.59 137.005 401.222 137.612L402.392 140.244ZM406.573 136.68C407.42 135.341 407.971 133.659 408.286 131.704L405.443 131.246C405.166 132.959 404.712 134.234 404.138 135.143L406.573 136.68ZM408.296 131.628C408.48 129.913 408.571 128.057 408.571 126.063H405.691C405.691 127.972 405.604 129.724 405.433 131.322L408.296 131.628ZM408.571 126.063V123.933H405.691V126.063H408.571ZM408.571 123.933C408.571 123.07 408.192 122.28 407.416 121.787L405.869 124.216C405.841 124.199 405.78 124.147 405.733 124.058C405.688 123.973 405.691 123.917 405.691 123.933H408.571ZM407.416 121.787C407.038 121.546 406.584 121.397 406.081 121.419C405.589 121.44 405.165 121.62 404.823 121.848L406.421 124.244C406.434 124.235 406.358 124.289 406.206 124.296C406.043 124.303 405.921 124.249 405.869 124.216L407.416 121.787ZM404.864 121.821C403.706 122.538 402.565 123.079 401.44 123.454L402.351 126.186C403.71 125.733 405.054 125.091 406.38 124.27L404.864 121.821ZM401.403 123.467C399.626 124.114 397.665 124.445 395.507 124.445V127.325C397.963 127.325 400.261 126.947 402.388 126.174L401.403 123.467ZM395.507 124.445C392.737 124.445 390.186 123.92 387.837 122.882L386.673 125.516C389.412 126.726 392.362 127.325 395.507 127.325V124.445ZM387.899 122.911C385.71 121.817 383.859 120.346 382.333 118.492L380.11 120.323C381.896 122.492 384.068 124.216 386.611 125.487L387.899 122.911ZM382.289 118.441C380.73 116.721 379.523 114.572 378.689 111.96L375.946 112.836C376.887 115.785 378.282 118.309 380.155 120.375L382.289 118.441ZM378.684 111.943C377.849 109.438 377.427 106.754 377.427 103.88H374.547C374.547 107.04 375.012 110.034 375.951 112.854L378.684 111.943ZM377.427 103.88V86.4893H374.547V103.88H377.427ZM377.427 86.4893C377.427 85.7494 377.673 85.1538 378.203 84.6238L376.166 82.5874C375.099 83.6545 374.547 84.9814 374.547 86.4893H377.427ZM378.203 84.6238C378.717 84.1093 379.335 83.8477 380.157 83.8477V80.9677C378.612 80.9677 377.249 81.5048 376.166 82.5874L378.203 84.6238ZM380.157 83.8477C380.897 83.8477 381.492 84.0938 382.022 84.6238L384.059 82.5874C382.992 81.5202 381.665 80.9677 380.157 80.9677V83.8477ZM382.022 84.6238C382.552 85.1538 382.798 85.7494 382.798 86.4893H385.678C385.678 84.9814 385.126 83.6545 384.059 82.5874L382.022 84.6238ZM382.798 86.4893V103.703H385.678V86.4893H382.798ZM382.798 103.703C382.798 105.662 383.051 107.642 383.551 109.642L386.345 108.943C385.899 107.158 385.678 105.412 385.678 103.703H382.798ZM383.551 109.642C384.005 111.458 384.753 113.148 385.791 114.705L388.187 113.108C387.332 111.826 386.719 110.44 386.345 108.943L383.551 109.642ZM385.814 114.739C386.939 116.328 388.303 117.539 389.917 118.311L391.159 115.713C390.052 115.184 389.05 114.325 388.164 113.074L385.814 114.739ZM389.874 118.29C391.59 119.182 393.541 119.606 395.684 119.606V116.726C393.924 116.726 392.444 116.38 391.202 115.735L389.874 118.29ZM395.684 119.606C397.925 119.606 399.904 119.19 401.539 118.266L400.122 115.759C399.037 116.372 397.584 116.726 395.684 116.726V119.606ZM401.431 118.321C403.116 117.549 404.498 116.326 405.578 114.705L403.182 113.108C402.369 114.327 401.385 115.174 400.231 115.703L401.431 118.321ZM405.538 114.763C406.663 113.241 407.452 111.525 407.909 109.631L405.11 108.955C404.739 110.491 404.108 111.852 403.222 113.051L405.538 114.763ZM407.906 109.642C408.354 107.85 408.571 105.867 408.571 103.703H405.691C405.691 105.679 405.493 107.423 405.112 108.943L407.906 109.642ZM408.571 103.703V86.4893H405.691V103.703H408.571ZM408.571 86.4893C408.571 85.7494 408.817 85.1538 409.347 84.6238L407.31 82.5874C406.243 83.6545 405.691 84.9814 405.691 86.4893H408.571ZM409.347 84.6238C409.861 84.1093 410.479 83.8477 411.301 83.8477V80.9677C409.756 80.9677 408.393 81.5048 407.31 82.5874L409.347 84.6238ZM479.861 87.2646L496.897 64.5499L494.593 62.8219L477.557 85.5366L479.861 87.2646ZM496.933 64.499C497.421 63.7868 498.059 63.44 499.028 63.44V60.56C497.157 60.56 495.607 61.3371 494.556 62.8727L496.933 64.499ZM499.028 63.44H501.069V60.56H499.028V63.44ZM501.069 63.44C501.809 63.44 502.404 63.6861 502.934 64.2161L504.971 62.1796C503.903 61.1125 502.577 60.56 501.069 60.56V63.44ZM502.934 64.2161C503.464 64.7461 503.71 65.3416 503.71 66.0815H506.59C506.59 64.5737 506.038 63.2468 504.971 62.1796L502.934 64.2161ZM503.71 66.0815V120.916H506.59V66.0815H503.71ZM503.71 120.916C503.71 121.656 503.464 122.252 502.934 122.782L504.971 124.818C506.038 123.751 506.59 122.424 506.59 120.916H503.71ZM502.934 122.782C502.404 123.312 501.809 123.558 501.069 123.558V126.438C502.577 126.438 503.903 125.885 504.971 124.818L502.934 122.782ZM501.069 123.558C500.247 123.558 499.629 123.296 499.114 122.782L497.078 124.818C498.161 125.901 499.524 126.438 501.069 126.438V123.558ZM499.114 122.782C498.603 122.271 498.387 121.707 498.425 120.992L495.549 120.841C495.468 122.374 495.992 123.732 497.078 124.818L499.114 122.782ZM498.427 120.916V86.8442H495.547V120.916H498.427ZM498.427 86.8442C498.427 85.572 498.085 84.4018 497.323 83.4279L495.055 85.2029C495.357 85.5896 495.547 86.1052 495.547 86.8442H498.427ZM497.323 83.4279C496.63 82.5435 495.755 81.8975 494.708 81.535L493.765 84.2565C494.256 84.4264 494.682 84.7269 495.055 85.2029L497.323 83.4279ZM494.708 81.535C493.637 81.1646 492.525 81.1567 491.413 81.4632L492.179 84.2395C492.784 84.0728 493.298 84.0946 493.765 84.2565L494.708 81.535ZM491.413 81.4632C490.227 81.7907 489.245 82.4886 488.481 83.4818L490.764 85.2378C491.183 84.693 491.651 84.3854 492.179 84.2395L491.413 81.4632ZM488.473 83.4924L477.559 97.9553L479.858 99.6901L490.772 85.2272L488.473 83.4924ZM477.572 97.9386C477.276 98.3195 476.944 98.5961 476.574 98.7906L477.915 101.339C478.67 100.942 479.314 100.391 479.846 99.7068L477.572 97.9386ZM476.574 98.7906C476.214 98.9801 475.852 99.0685 475.47 99.0685V101.949C476.33 101.949 477.152 101.741 477.915 101.339L476.574 98.7906ZM475.47 99.0685C475.087 99.0685 474.7 98.9793 474.295 98.7769L473.007 101.353C473.785 101.742 474.611 101.949 475.47 101.949V99.0685ZM474.295 98.7769C473.9 98.5793 473.564 98.3047 473.28 97.9386L471.006 99.7068C471.55 100.405 472.22 100.959 473.007 101.353L474.295 98.7769ZM473.296 97.9598L462.471 83.4969L460.165 85.2227L470.99 99.6855L473.296 97.9598ZM462.459 83.4818C461.689 82.4799 460.691 81.7879 459.482 81.496L458.806 84.2956C459.312 84.4177 459.764 84.7017 460.177 85.2378L462.459 83.4818ZM459.482 81.496C458.398 81.2343 457.32 81.2439 456.28 81.5638L457.127 84.3164C457.626 84.1631 458.175 84.1431 458.806 84.2956L459.482 81.496ZM456.28 81.5638C455.209 81.8934 454.318 82.534 453.618 83.4279L455.886 85.2029C456.251 84.7364 456.661 84.4601 457.127 84.3164L456.28 81.5638ZM453.618 83.4279C452.856 84.4018 452.513 85.572 452.513 86.8442H455.393C455.393 86.1052 455.583 85.5896 455.886 85.2029L453.618 83.4279ZM452.513 86.8442V120.916H455.393V86.8442H452.513ZM452.513 120.916C452.513 121.656 452.267 122.252 451.737 122.782L453.774 124.818C454.841 123.751 455.393 122.424 455.393 120.916H452.513ZM451.737 122.782C451.207 123.312 450.612 123.558 449.872 123.558V126.438C451.38 126.438 452.707 125.885 453.774 124.818L451.737 122.782ZM449.872 123.558C449.051 123.558 448.459 123.297 447.981 122.801L445.906 124.799C446.967 125.9 448.327 126.438 449.872 126.438V123.558ZM447.981 122.801C447.474 122.275 447.23 121.673 447.23 120.916H444.35C444.35 122.407 444.875 123.728 445.906 124.799L447.981 122.801ZM447.23 120.916V66.0815H444.35V120.916H447.23ZM447.23 66.0815C447.23 65.3244 447.474 64.7228 447.981 64.1967L445.906 62.199C444.875 63.27 444.35 64.5909 444.35 66.0815H447.23ZM447.981 64.1967C448.459 63.7004 449.051 63.44 449.872 63.44V60.56C448.327 60.56 446.967 61.0981 445.906 62.199L447.981 64.1967ZM449.872 63.44H451.913V60.56H449.872V63.44ZM451.913 63.44C452.802 63.44 453.471 63.7731 454.036 64.5401L456.355 62.8317C455.264 61.3507 453.745 60.56 451.913 60.56V63.44ZM454.041 64.547L470.989 87.2617L473.297 85.5395L456.35 62.8247L454.041 64.547ZM471.006 87.2846C471.559 87.9948 472.246 88.5451 473.06 88.9116L474.242 86.2852C473.873 86.1193 473.555 85.8711 473.28 85.5165L471.006 87.2846ZM473.06 88.9116C473.829 89.2576 474.636 89.4377 475.47 89.4377V86.5577C475.062 86.5577 474.656 86.4716 474.242 86.2852L473.06 88.9116ZM475.47 89.4377C476.305 89.4377 477.107 89.2572 477.861 88.8998L476.628 86.297C476.259 86.4721 475.878 86.5577 475.47 86.5577V89.4377ZM477.861 88.8998C478.644 88.5291 479.305 87.9796 479.846 87.2846L477.572 85.5165C477.285 85.8863 476.97 86.1353 476.628 86.297L477.861 88.8998ZM556.668 118.254C556.668 119.778 556.161 121.005 555.138 122.028L557.175 124.064C558.755 122.484 559.548 120.517 559.548 118.254H556.668ZM555.138 122.028C554.115 123.05 552.888 123.558 551.365 123.558V126.438C553.628 126.438 555.595 125.644 557.175 124.064L555.138 122.028ZM551.365 123.558H550.921V126.438H551.365V123.558ZM550.921 123.558C550.331 123.558 549.822 123.484 549.383 123.352L548.556 126.111C549.3 126.334 550.092 126.438 550.921 126.438V123.558ZM549.383 123.352C548.694 123.146 547.874 122.985 546.941 122.861L546.561 125.715C547.403 125.828 548.062 125.963 548.556 126.111L549.383 123.352ZM546.941 122.861C545.844 122.714 544.783 122.816 543.802 123.225L544.909 125.883C545.348 125.701 545.884 125.625 546.561 125.715L546.941 122.861ZM543.788 123.231C541.93 124.027 539.734 124.445 537.168 124.445V127.325C540.045 127.325 542.64 126.856 544.923 125.878L543.788 123.231ZM537.168 124.445C534.209 124.445 531.503 123.916 529.033 122.873L527.913 125.526C530.766 126.731 533.857 127.325 537.168 127.325V124.445ZM529.044 122.877C526.613 121.828 524.428 120.336 522.481 118.39L520.445 120.426C522.64 122.621 525.127 124.323 527.902 125.521L529.044 122.877ZM522.51 118.419C520.605 116.402 519.132 114.202 518.078 111.816L515.443 112.98C516.637 115.682 518.299 118.154 520.416 120.397L522.51 118.419ZM518.09 111.844C516.977 109.173 516.426 106.463 516.426 103.703H513.546C513.546 106.858 514.178 109.944 515.431 112.952L518.09 111.844ZM516.426 103.703C516.426 100.88 516.978 98.207 518.081 95.6702L515.44 94.5219C514.177 97.4272 513.546 100.492 513.546 103.703H516.426ZM518.087 95.6562C519.14 93.1627 520.604 90.9824 522.481 89.1047L520.445 87.0682C518.3 89.2129 516.629 91.7056 515.434 94.5359L518.087 95.6562ZM522.481 89.1047C524.428 87.1586 526.613 85.6665 529.044 84.6171L527.902 81.973C525.127 83.1714 522.64 84.8735 520.445 87.0682L522.481 89.1047ZM529.027 84.6243C531.698 83.5113 534.408 82.9605 537.168 82.9605V80.0805C534.013 80.0805 530.927 80.7126 527.919 81.9658L529.027 84.6243ZM537.168 82.9605C539.88 82.9605 542.407 83.4713 544.762 84.4847L545.901 81.8392C543.169 80.6639 540.253 80.0805 537.168 80.0805V82.9605ZM544.762 84.4847C547.144 85.5094 549.208 86.9016 550.968 88.661L553.004 86.6245C550.978 84.5981 548.606 83.0031 545.901 81.8392L544.762 84.4847ZM550.968 88.661C552.727 90.4204 554.119 92.4848 555.144 94.8666L557.79 93.7284C556.626 91.023 555.031 88.651 553.004 86.6245L550.968 88.661ZM555.144 94.8666C556.158 97.222 556.668 99.7484 556.668 102.461H559.548C559.548 99.3757 558.965 96.4601 557.79 93.7284L555.144 94.8666ZM556.668 102.461V118.254H559.548V102.461H556.668ZM537.168 119.517C540.248 119.517 543.031 118.776 545.471 117.259L543.95 114.813C542.013 116.018 539.767 116.637 537.168 116.637V119.517ZM545.446 117.274C547.86 115.839 549.78 113.848 551.2 111.331L548.691 109.916C547.508 112.013 545.938 113.631 543.974 114.798L545.446 117.274ZM551.211 111.311C552.458 109.013 553.071 106.467 553.071 103.703H550.191C550.191 106.026 549.68 108.094 548.68 109.937L551.211 111.311ZM553.071 103.703C553.071 100.992 552.456 98.4765 551.211 96.1836L548.68 97.5576C549.683 99.4055 550.191 101.445 550.191 103.703H553.071ZM551.213 96.1879C549.849 93.6539 547.923 91.6308 545.456 90.1375L543.965 92.6013C545.993 93.8291 547.558 95.4734 548.677 97.5533L551.213 96.1879ZM545.471 90.1464C543.031 88.6298 540.248 87.8886 537.168 87.8886V90.7686C539.767 90.7686 542.013 91.3879 543.95 92.5924L545.471 90.1464ZM537.168 87.8886C534.969 87.8886 532.903 88.3104 530.989 89.1681L532.167 91.7961C533.685 91.1159 535.346 90.7686 537.168 90.7686V87.8886ZM531.044 89.1451C530.071 89.534 529.158 90.0064 528.306 90.5635L529.882 92.9739C530.568 92.5254 531.311 92.14 532.113 91.8191L531.044 89.1451ZM528.306 90.5635C527.454 91.1206 526.667 91.76 525.946 92.4807L527.983 94.5172C528.563 93.9364 529.196 93.4224 529.882 92.9739L528.306 90.5635ZM525.903 92.5259C524.507 94.0485 523.387 95.709 522.553 97.5064L525.165 98.7192C525.868 97.2042 526.819 95.7887 528.026 94.472L525.903 92.5259ZM522.522 97.578C521.743 99.5264 521.354 101.572 521.354 103.703L524.234 103.703C524.234 101.93 524.556 100.248 525.196 98.6476L522.522 97.578ZM521.354 103.703C521.354 105.939 521.738 108 522.535 109.86L525.183 108.725C524.56 107.273 524.234 105.607 524.234 103.703L521.354 103.703ZM522.553 109.899C523.387 111.697 524.507 113.357 525.903 114.88L528.026 112.934C526.819 111.617 525.868 110.201 525.165 108.686L522.553 109.899ZM525.991 114.968C527.514 116.364 529.175 117.484 530.972 118.318L532.185 115.706C530.67 115.003 529.254 114.052 527.938 112.845L525.991 114.968ZM531.044 118.349C532.992 119.129 535.037 119.517 537.168 119.517V116.637C535.395 116.637 533.714 116.316 532.113 115.675L531.044 118.349ZM596.584 121.892C596.584 122.631 596.312 123.251 595.656 123.825L597.552 125.993C598.789 124.911 599.464 123.519 599.464 121.892H596.584ZM595.656 123.825C595.009 124.391 594.364 124.572 593.623 124.461L593.196 127.309C594.821 127.553 596.306 127.083 597.552 125.993L595.656 123.825ZM593.692 124.473C592.841 124.303 592.021 124.105 591.232 123.879L590.441 126.649C591.308 126.896 592.204 127.112 593.127 127.297L593.692 124.473ZM591.232 123.879C590.443 123.654 589.685 123.401 588.958 123.121L587.924 125.809C588.734 126.121 589.574 126.401 590.441 126.649L591.232 123.879ZM588.976 123.128C586.504 122.14 584.441 120.723 582.761 118.881L580.633 120.822C582.621 123.002 585.053 124.661 587.906 125.802L588.976 123.128ZM582.732 118.85C581.063 117.127 579.81 115.015 578.985 112.484L576.247 113.377C577.196 116.288 578.664 118.79 580.663 120.853L582.732 118.85ZM578.982 112.475C578.147 109.971 577.725 107.286 577.725 104.413H574.845C574.845 107.573 575.31 110.567 576.25 113.386L578.982 112.475ZM577.725 104.413V90.4821H574.845V104.413H577.725ZM576.285 89.0421H571.139V91.9221H576.285V89.0421ZM571.139 89.0421C570.382 89.0421 569.806 88.7994 569.317 88.3104L567.281 90.3469C568.33 91.3959 569.647 91.9221 571.139 91.9221V89.0421ZM569.317 88.3104C568.828 87.8214 568.586 87.2456 568.586 86.4893H565.706C565.706 87.9808 566.232 89.2979 567.281 90.3469L569.317 88.3104ZM568.586 86.4893C568.586 85.6512 568.844 85.0533 569.317 84.5795L567.281 82.543C566.217 83.6071 565.706 84.9613 565.706 86.4893H568.586ZM569.317 84.5795C569.806 84.0905 570.382 83.8477 571.139 83.8477V80.9677C569.647 80.9677 568.33 81.494 567.281 82.543L569.317 84.5795ZM571.139 83.8477H572.292V80.9677H571.139V83.8477ZM572.292 83.8477C573.784 83.8477 575.101 83.3215 576.15 82.2725L574.113 80.236C573.624 80.725 573.048 80.9677 572.292 80.9677V83.8477ZM576.15 82.2725C577.199 81.2235 577.725 79.9065 577.725 78.4149H574.845C574.845 79.1712 574.602 79.747 574.113 80.236L576.15 82.2725ZM577.725 78.4149V73.6235H574.845V78.4149H577.725ZM577.725 73.6235C577.725 72.8836 577.971 72.2881 578.501 71.7581L576.464 69.7216C575.397 70.7888 574.845 72.1156 574.845 73.6235H577.725ZM578.501 71.7581C579.031 71.2281 579.626 70.982 580.366 70.982V68.102C578.858 68.102 577.532 68.6545 576.464 69.7216L578.501 71.7581ZM580.366 70.982C581.105 70.982 581.675 71.2264 582.168 71.7387L584.243 69.741C583.198 68.6562 581.876 68.102 580.366 68.102V70.982ZM582.168 71.7387C582.675 72.2648 582.919 72.8664 582.919 73.6235H585.799C585.799 72.1329 585.274 70.812 584.243 69.741L582.168 71.7387ZM582.919 73.6235V82.4077H585.799V73.6235H582.919ZM584.359 83.8477H597.136V80.9677H584.359V83.8477ZM597.136 83.8477C597.893 83.8477 598.468 84.0905 598.957 84.5795L600.994 82.543C599.945 81.494 598.628 80.9677 597.136 80.9677V83.8477ZM598.957 84.5795C599.431 85.0533 599.689 85.6512 599.689 86.4893H602.569C602.569 84.9613 602.058 83.6071 600.994 82.543L598.957 84.5795ZM599.689 86.4893C599.689 87.2456 599.446 87.8214 598.957 88.3104L600.994 90.3469C602.043 89.2979 602.569 87.9808 602.569 86.4893H599.689ZM598.957 88.3104C598.468 88.7994 597.893 89.0421 597.136 89.0421V91.9221C598.628 91.9221 599.945 91.3959 600.994 90.3469L598.957 88.3104ZM597.136 89.0421H584.359V91.9221H597.136V89.0421ZM582.919 90.4821V104.413H585.799V90.4821H582.919ZM582.919 104.413C582.919 106.372 583.172 108.275 583.681 110.119L586.457 109.353C586.019 107.767 585.799 106.121 585.799 104.413H582.919ZM583.681 110.119C584.202 112.007 585.03 113.652 586.19 115.017L588.384 113.152C587.533 112.15 586.883 110.896 586.457 109.353L583.681 110.119ZM586.194 115.021C587.433 116.467 589.058 117.568 591.011 118.349L592.081 115.675C590.486 115.037 589.271 114.185 588.381 113.147L586.194 115.021ZM590.864 118.28C591.841 118.806 593.062 119.136 594.457 119.326L594.846 116.473C593.638 116.308 592.79 116.046 592.229 115.744L590.864 118.28ZM594.484 119.33C595.126 119.405 595.593 119.667 595.972 120.135L598.212 118.326C597.348 117.256 596.189 116.63 594.82 116.469L594.484 119.33ZM595.972 120.135C596.382 120.643 596.584 121.21 596.584 121.892H599.464C599.464 120.564 599.044 119.356 598.212 118.326L595.972 120.135ZM644.748 114.751C645.517 115.136 645.921 115.688 646.055 116.529L648.899 116.076C648.619 114.314 647.632 112.973 646.036 112.175L644.748 114.751ZM646.055 116.529C646.183 117.333 645.971 117.987 645.292 118.625L647.266 120.723C648.599 119.468 649.185 117.875 648.899 116.076L646.055 116.529ZM645.261 118.656C644.664 119.252 644.011 119.811 643.3 120.33L644.999 122.656C645.826 122.052 646.593 121.397 647.297 120.692L645.261 118.656ZM643.3 120.33C642.575 120.861 641.821 121.349 641.04 121.796L642.468 124.296C643.343 123.796 644.187 123.249 644.999 122.656L643.3 120.33ZM641.04 121.796C637.953 123.559 634.563 124.445 630.84 124.445V127.325C635.044 127.325 638.93 126.318 642.468 124.296L641.04 121.796ZM630.84 124.445C627.881 124.445 625.209 123.915 622.804 122.877L621.663 125.521C624.464 126.731 627.53 127.325 630.84 127.325V124.445ZM622.783 122.868C620.244 121.819 618.079 120.337 616.272 118.42L614.176 120.396C616.273 122.62 618.781 124.331 621.684 125.53L622.783 122.868ZM616.212 118.36C614.295 116.553 612.812 114.388 611.763 111.849L609.102 112.948C610.301 115.851 612.012 118.359 614.236 120.456L616.212 118.36ZM611.755 111.827C610.716 109.423 610.187 106.751 610.187 103.792H607.307C607.307 107.102 607.901 110.168 609.111 112.969L611.755 111.827ZM610.187 103.792C610.187 100.769 610.718 98.0679 611.755 95.6669L609.111 94.5252C607.899 97.3297 607.307 100.426 607.307 103.792H610.187ZM611.758 95.6599C612.87 93.0455 614.358 90.8791 616.211 89.135L614.237 87.0378C612.068 89.0796 610.361 91.5861 609.108 94.5322L611.758 95.6599ZM616.272 89.0743C618.079 87.1574 620.244 85.6748 622.783 84.626L621.684 81.9641C618.781 83.1631 616.273 84.8747 614.176 87.0986L616.272 89.0743ZM622.808 84.6156C625.344 83.5127 628.018 82.9605 630.84 82.9605V80.0805C627.629 80.0805 624.565 80.7113 621.659 81.9745L622.808 84.6156ZM630.84 82.9605C634.563 82.9605 637.953 83.8464 641.04 85.6101L642.468 83.1095C638.93 81.0874 635.044 80.0805 630.84 80.0805V82.9605ZM641.044 85.6126C642.729 86.5674 644.169 87.6228 645.374 88.7731L647.362 86.6899C645.965 85.3558 644.328 84.1634 642.464 83.107L641.044 85.6126ZM645.35 88.7497C645.985 89.3851 646.21 90.0631 646.095 90.9087L648.948 91.2978C649.188 89.5406 648.644 87.9708 647.386 86.7133L645.35 88.7497ZM646.095 90.9087C645.981 91.7437 645.583 92.3313 644.787 92.7695L646.175 95.293C647.744 94.4299 648.707 93.0655 648.948 91.2978L646.095 90.9087ZM644.798 92.7634C644.278 93.0431 643.806 93.1195 643.34 93.0505L642.918 95.8994C644.049 96.067 645.145 95.8476 646.163 95.2992L644.798 92.7634ZM643.34 93.0505C642.85 92.9778 642.383 92.762 641.924 92.3447L639.987 94.4757C640.829 95.2414 641.812 95.7355 642.918 95.8994L643.34 93.0505ZM641.974 92.392C640.867 91.2851 639.648 90.3923 638.316 89.7265L637.028 92.3025C638.063 92.8198 639.033 93.524 639.937 94.4284L641.974 92.392ZM638.375 89.7575C636.127 88.5014 633.604 87.8886 630.84 87.8886V90.7686C633.164 90.7686 635.195 91.2798 636.97 92.2715L638.375 89.7575ZM630.84 87.8886C628.59 87.8886 626.537 88.3073 624.714 89.1847L625.964 91.7796C627.336 91.1189 628.95 90.7686 630.84 90.7686V87.8886ZM624.813 89.1418C622.95 89.8737 621.249 91.0277 619.707 92.5694L621.743 94.6059C623.041 93.3083 624.416 92.3919 625.866 91.8224L624.813 89.1418ZM619.73 92.547C618.227 93.9847 617.076 95.6593 616.289 97.5623L618.95 98.6634C619.582 97.1355 620.502 95.7934 621.72 94.6283L619.73 92.547ZM616.306 97.5238C615.445 99.4425 615.026 101.539 615.026 103.792H617.906C617.906 101.903 618.256 100.214 618.934 98.7019L616.306 97.5238ZM615.026 103.792C615.026 106.042 615.445 108.095 616.322 109.917L618.917 108.668C618.256 107.296 617.906 105.682 617.906 103.792H615.026ZM616.279 109.819C617.011 111.682 618.165 113.383 619.707 114.925L621.743 112.888C620.446 111.591 619.529 110.216 618.96 108.766L616.279 109.819ZM619.707 114.925C621.249 116.467 622.95 117.621 624.813 118.352L625.866 115.672C624.416 115.102 623.041 114.186 621.743 112.888L619.707 114.925ZM624.714 118.31C626.537 119.187 628.59 119.606 630.84 119.606V116.726C628.95 116.726 627.336 116.375 625.964 115.715L624.714 118.31ZM630.84 119.606C633.604 119.606 636.127 118.993 638.375 117.737L636.97 115.223C635.195 116.215 633.164 116.726 630.84 116.726V119.606ZM638.343 117.754C639.609 117.088 640.789 116.198 641.885 115.102L639.848 113.066C638.933 113.981 637.983 114.689 637.002 115.206L638.343 117.754ZM641.835 115.15C642.294 114.732 642.761 114.517 643.252 114.444L642.83 111.595C641.723 111.759 640.74 112.253 639.898 113.019L641.835 115.15ZM643.252 114.444C643.718 114.375 644.19 114.451 644.709 114.731L646.075 112.195C645.056 111.647 643.961 111.427 642.83 111.595L643.252 114.444ZM692.669 88.876C694.245 90.6152 695.517 92.7574 696.467 95.329L699.169 94.3307C698.108 91.4602 696.658 88.9885 694.803 86.942L692.669 88.876ZM696.472 95.3425C697.346 97.6367 697.797 100.268 697.797 103.259H700.677C700.677 99.9796 700.182 96.9918 699.163 94.3172L696.472 95.3425ZM697.797 103.259V121.182H700.677V103.259H697.797ZM697.797 121.182C697.797 121.873 697.574 122.407 697.11 122.87L699.147 124.907C700.162 123.892 700.677 122.621 700.677 121.182H697.797ZM697.11 122.87C696.646 123.334 696.113 123.558 695.422 123.558V126.438C696.861 126.438 698.132 125.922 699.147 124.907L697.11 122.87ZM695.422 123.558C694.731 123.558 694.198 123.334 693.734 122.87L691.698 124.907C692.713 125.922 693.983 126.438 695.422 126.438V123.558ZM693.734 122.87C693.27 122.407 693.047 121.873 693.047 121.182H690.167C690.167 122.621 690.683 123.892 691.698 124.907L693.734 122.87ZM693.047 121.182V103.259H690.167V121.182H693.047ZM693.047 103.259C693.047 101.054 692.732 99.0454 692.07 97.2578L689.369 98.2581C689.89 99.6648 690.167 101.324 690.167 103.259H693.047ZM692.095 97.3311C691.51 95.4466 690.622 93.7897 689.417 92.3843L687.23 94.2586C688.155 95.3377 688.864 96.6384 689.344 98.1847L692.095 97.3311ZM689.496 92.4845C688.438 91.0033 686.953 89.8518 685.115 88.9986L683.902 91.6108C685.377 92.2955 686.435 93.1552 687.152 94.1584L689.496 92.4845ZM685.173 89.0271C683.45 88.1315 681.469 87.7112 679.273 87.7112V90.5912C681.101 90.5912 682.609 90.9399 683.844 91.5823L685.173 89.0271ZM679.273 87.7112C677.371 87.7112 675.53 88.073 673.761 88.7936L674.848 91.4608C676.273 90.88 677.745 90.5912 679.273 90.5912V87.7112ZM673.705 88.8181C672.119 89.5449 670.725 90.5399 669.533 91.7987L671.623 93.7794C672.56 92.7905 673.651 92.0109 674.905 91.4363L673.705 88.8181ZM669.453 91.8895C668.956 92.5108 668.476 93.1614 668.013 93.8412L670.392 95.4636C670.816 94.842 671.253 94.2505 671.702 93.6886L669.453 91.8895ZM668.013 93.8412C667.504 94.5878 667.083 95.3971 666.749 96.265L669.437 97.2988C669.695 96.6288 670.014 96.0183 670.392 95.4636L668.013 93.8412ZM666.767 96.2208C666.046 97.9255 665.655 99.726 665.59 101.612L668.468 101.712C668.521 100.167 668.839 98.7143 669.42 97.343L666.767 96.2208ZM665.589 101.662V121.182H668.469V101.662H665.589ZM665.589 121.182C665.589 121.873 665.365 122.407 664.901 122.87L666.938 124.907C667.953 123.892 668.469 122.621 668.469 121.182H665.589ZM664.901 122.87C664.437 123.334 663.904 123.558 663.213 123.558V126.438C664.652 126.438 665.923 125.922 666.938 124.907L664.901 122.87ZM663.213 123.558H662.77V126.438H663.213V123.558ZM662.77 123.558C662.116 123.558 661.594 123.333 661.12 122.822L659.007 124.778C660.012 125.864 661.294 126.438 662.77 126.438V123.558ZM661.12 122.822C660.713 122.382 660.394 121.62 660.394 120.295H657.514C657.514 122.046 657.935 123.621 659.007 124.778L661.12 122.822ZM660.394 120.295V66.9688H657.514V120.295H660.394ZM660.394 66.9688C660.394 66.1307 660.652 65.5329 661.126 65.059L659.09 63.0225C658.025 64.0867 657.514 65.4408 657.514 66.9688H660.394ZM661.126 65.059C661.615 64.57 662.191 64.3273 662.947 64.3273V61.4473C661.456 61.4473 660.139 61.9736 659.09 63.0225L661.126 65.059ZM662.947 64.3273C663.785 64.3273 664.383 64.5851 664.857 65.059L666.893 63.0225C665.829 61.9584 664.475 61.4473 662.947 61.4473V64.3273ZM664.857 65.059C665.331 65.5329 665.589 66.1307 665.589 66.9688H668.469C668.469 65.4408 667.958 64.0867 666.893 63.0225L664.857 65.059ZM665.589 66.9688V79.1248H668.469V66.9688H665.589ZM665.589 79.1248C665.589 80.1694 665.986 81.0942 666.72 81.8289L668.757 79.7924C668.545 79.5806 668.469 79.3815 668.469 79.1248H665.589ZM666.72 81.8289C667.455 82.5635 668.38 82.9605 669.424 82.9605V80.0805C669.168 80.0805 668.969 80.0042 668.757 79.7924L666.72 81.8289ZM669.424 82.9605H679.273V80.0805H669.424V82.9605ZM679.273 82.9605C682.033 82.9605 684.541 83.511 686.817 84.5952L688.056 81.9949C685.364 80.713 682.429 80.0805 679.273 80.0805V82.9605ZM686.841 84.606C689.279 85.7142 691.196 87.1314 692.636 88.8376L694.837 86.9804C693.082 84.9007 690.8 83.242 688.032 81.9841L686.841 84.606Z" fill="white"/>
</g>
</g>
<g id="Group 3_2">
<g id="Group 5">
<path id="Rectangle 4" opacity="0.3" fill-rule="evenodd" clip-rule="evenodd" d="M28.1094 29.8382L110.633 25.4636L112.378 132.165H41.9531L28.1094 29.8382Z" fill="white"/>
<path id="Fill 4" fill-rule="evenodd" clip-rule="evenodd" d="M67.445 84.3689L67.4134 84.3633C68.1311 80.293 68.8488 76.2226 69.5662 72.1537C71.2535 62.5764 72.8844 52.9907 74.6479 43.4269C75.6757 37.8501 77.834 36.1612 83.4872 36.7132C87.3478 37.0901 91.1698 37.9048 94.9996 38.5742C103.552 40.0689 103.715 39.8114 102.28 31.0934C101.786 28.0978 100.511 27.2667 97.619 27.6284C89.3149 28.6666 80.981 29.4786 72.6641 30.43C60.8465 31.7797 49.0328 33.1656 37.2198 34.5561C34.6689 34.8565 33.201 36.1527 33.4839 38.92C33.62 40.2501 33.7201 41.5827 33.8653 42.9114C35.6276 58.846 37.3822 74.7822 39.1685 90.715C40.5208 102.787 41.894 114.857 43.3111 126.923C43.7654 130.795 44.7971 131.527 48.5597 131.047C50.487 130.803 52.4152 130.52 54.3513 130.386C58.0133 130.132 59.8255 128.472 60.441 124.603C62.5771 111.16 65.0812 97.7747 67.445 84.3689V84.3689ZM152.667 109.161C149.753 125.685 146.853 142.211 143.919 158.731C142.748 165.329 140.139 167.144 133.509 165.986C110.631 161.994 87.765 157.937 64.8785 154.002C60.4641 153.243 57.4568 151.432 56.7264 146.62C56.3144 143.895 54.0606 143.914 51.859 144.184C49.5802 144.463 47.2894 144.843 45.0051 144.842C37.1741 144.837 31.6267 140.523 30.4617 132.771C28.7657 121.488 27.5754 110.128 26.2414 98.7937C23.887 78.7684 21.6416 58.7296 19.2401 38.7107C18.146 29.5888 22.5857 22.688 31.6754 21.2635C42.3449 19.5899 53.1295 18.6422 63.8693 17.4108C74.5987 16.1791 85.3387 15.0308 96.0641 13.7628C107.333 12.4306 115.049 16.8895 115.843 28.4371C116.051 31.4625 116.593 34.4652 116.838 37.4897C117.124 41.0047 118.734 42.8526 122.393 43.4933C133.403 45.4213 144.36 47.6572 155.339 49.7606C161.314 50.9062 162.669 52.8055 161.605 58.8828C158.675 75.6504 155.702 92.4118 152.746 109.175L152.667 109.161Z" fill="white"/>
</g>
</g>
</g>
</g>
</svg>
