<svg width="34" height="28" viewBox="0 0 34 28" fill="none" xmlns="http://www.w3.org/2000/svg">
<path opacity="0.8" fill-rule="evenodd" clip-rule="evenodd" d="M33.1907 3.91542C33.1907 1.84062 31.5088 0.157227 29.4325 0.157227C28.2566 0.157227 27.2079 0.698541 26.5182 1.54371L26.5167 1.54229L12.9725 18.1776L7.14542 11.8671L7.14259 11.8699C6.45572 11.1265 5.47624 10.6587 4.38515 10.6587C2.30893 10.6573 0.626953 12.3391 0.626953 14.4154C0.626953 15.3991 1.00856 16.2909 1.62618 16.9609L1.62336 16.9637L10.3902 26.4571L10.393 26.4542C11.0799 27.1977 12.0594 27.6655 13.1505 27.6655C14.3264 27.6655 15.375 27.1242 16.0648 26.279L16.0662 26.2804L32.348 6.28714L32.3465 6.28572C32.8737 5.63981 33.1903 4.81443 33.1903 3.91553L33.1907 3.91542Z" fill="#BFC4CD"/>
</svg>
