<svg width="34" height="28" viewBox="0 0 34 28" fill="none" xmlns="http://www.w3.org/2000/svg">
<path fill-rule="evenodd" clip-rule="evenodd" d="M33.1907 3.91566C33.1907 1.84086 31.5088 0.157471 29.4325 0.157471C28.2566 0.157471 27.2079 0.698785 26.5182 1.54395L26.5167 1.54254L12.9725 18.1778L7.14542 11.8674L7.14259 11.8702C6.45572 11.1268 5.47624 10.6589 4.38515 10.6589C2.30893 10.6575 0.626953 12.3394 0.626953 14.4157C0.626953 15.3994 1.00856 16.2912 1.62618 16.9611L1.62336 16.964L10.3902 26.4573L10.393 26.4545C11.0799 27.1979 12.0594 27.6657 13.1505 27.6657C14.3264 27.6657 15.375 27.1244 16.0648 26.2793L16.0662 26.2807L32.348 6.28738L32.3465 6.28597C32.8737 5.64005 33.1903 4.81467 33.1903 3.91578L33.1907 3.91566Z" fill="#4CE49B"/>
</svg>
