<svg width="12" height="12" viewBox="0 0 12 12" fill="none" xmlns="http://www.w3.org/2000/svg">
  <path d="M10.5667 4.92667L11.2733 4.22C11.7933 3.7 11.7933 2.85333 11.2733 2.33333L10.3333 1.39333C9.81333 0.873333 8.96667 0.873333 8.44667 1.39333L7.74 2.1L10.5667 4.92667ZM6.79333 3.04L0.76 9.07333C0.699638 9.13596 0.666144 9.21969 0.666667 9.30667V11.6667C0.666667 11.8533 0.813333 12 1 12H3.36C3.44667 12 3.53333 11.9667 3.59333 11.9L9.62667 5.86667L6.79333 3.04ZM10.6667 9.66667C10.6667 11.1267 8.97333 12 7.33333 12C6.96667 12 6.66667 11.7 6.66667 11.3333C6.66667 10.9667 6.96667 10.6667 7.33333 10.6667C8.36 10.6667 9.33333 10.18 9.33333 9.66667C9.33333 9.35333 9.01333 9.08667 8.51333 8.86667L9.5 7.88C10.2133 8.3 10.6667 8.86 10.6667 9.66667ZM1.05333 6.9C0.406667 6.52667 0 6.04 0 5.33333C0 4.13333 1.26 3.58 2.37333 3.09333C3.06 2.78667 4 2.37333 4 2C4 1.72667 3.48 1.33333 2.66667 1.33333C1.82667 1.33333 1.46667 1.74 1.44667 1.76C1.21333 2.03333 0.793333 2.06667 0.513333 1.84C0.379349 1.7304 0.293785 1.57255 0.27508 1.40046C0.256375 1.22838 0.306026 1.05583 0.413333 0.92C0.486667 0.826667 1.17333 0 2.66667 0C4.16 0 5.33333 0.88 5.33333 2C5.33333 3.24667 4.04667 3.81333 2.90667 4.31333C2.28 4.58667 1.33333 5 1.33333 5.33333C1.33333 5.54 1.62 5.73333 2.04667 5.90667L1.05333 6.9Z" fill="#8C52FF" />
</svg>
