<svg width="97" height="52" viewBox="0 0 97 52" fill="none" xmlns="http://www.w3.org/2000/svg">
<path fill-rule="evenodd" clip-rule="evenodd" d="M66.8514 52L97 26L66.8514 0V7.7512H0V44.2488H66.8514V52Z" fill="#8C52FF"/>
<path d="M12.0956 31.3472V20.6752H19.0876V21.8592H13.4236V25.2992H18.9756V26.4832H13.4236V31.3472H12.0956ZM20.8925 31.3472V20.6752H22.2205V31.3472H20.8925ZM32.2726 31.3472L26.0486 22.8352V31.3472H24.7206V20.6752H26.0806L32.2246 29.0112V20.6752H33.5526V31.3472H32.2726ZM36.0488 31.3472V20.6752H37.3768V31.3472H36.0488ZM43.3329 31.5392C42.3942 31.5392 41.5889 31.3845 40.9169 31.0752C40.2449 30.7552 39.6849 30.3445 39.2369 29.8432L40.0209 28.8352C40.1916 29.0272 40.3942 29.2192 40.6289 29.4112C40.8636 29.5925 41.1196 29.7525 41.3969 29.8912C41.6849 30.0298 41.9942 30.1418 42.3249 30.2272C42.6556 30.3125 43.0076 30.3552 43.3809 30.3552C43.8609 30.3552 44.2609 30.2965 44.5809 30.1792C44.9009 30.0618 45.1569 29.9178 45.3489 29.7472C45.5409 29.5658 45.6796 29.3685 45.7649 29.1552C45.8502 28.9312 45.8929 28.7178 45.8929 28.5152C45.8929 28.1738 45.8022 27.8912 45.6209 27.6672C45.4396 27.4432 45.1996 27.2565 44.9009 27.1072C44.6129 26.9472 44.2769 26.8192 43.8929 26.7232C43.5196 26.6165 43.1302 26.5098 42.7249 26.4032C42.3302 26.2858 41.9409 26.1578 41.5569 26.0192C41.1836 25.8805 40.8476 25.7045 40.5489 25.4912C40.2609 25.2672 40.0262 24.9952 39.8449 24.6752C39.6636 24.3552 39.5729 23.9552 39.5729 23.4752C39.5729 23.0378 39.6636 22.6378 39.8449 22.2752C40.0369 21.9125 40.2929 21.6032 40.6129 21.3472C40.9436 21.0805 41.3329 20.8778 41.7809 20.7392C42.2289 20.5898 42.7142 20.5152 43.2369 20.5152C44.0582 20.5152 44.7836 20.6432 45.4129 20.8992C46.0422 21.1552 46.5809 21.5232 47.0289 22.0032L46.2289 22.9792C45.8236 22.5312 45.3542 22.2058 44.8209 22.0032C44.2876 21.8005 43.7276 21.6992 43.1409 21.6992C42.5009 21.6992 41.9729 21.8538 41.5569 22.1632C41.1516 22.4725 40.9489 22.8832 40.9489 23.3952C40.9489 23.6938 41.0396 23.9392 41.2209 24.1312C41.4022 24.3232 41.6369 24.4885 41.9249 24.6272C42.2236 24.7658 42.5596 24.8885 42.9329 24.9952C43.3169 25.0912 43.7062 25.1978 44.1009 25.3152C44.5062 25.4218 44.8956 25.5498 45.2689 25.6992C45.6529 25.8485 45.9889 26.0405 46.2769 26.2752C46.5756 26.5098 46.8156 26.7978 46.9969 27.1392C47.1782 27.4805 47.2689 27.9018 47.2689 28.4032C47.2689 28.7872 47.1996 29.1712 47.0609 29.5552C46.9222 29.9285 46.6929 30.2645 46.3729 30.5632C46.0636 30.8512 45.6582 31.0858 45.1569 31.2672C44.6556 31.4485 44.0476 31.5392 43.3329 31.5392ZM56.8199 31.3472V26.4512H50.5799V31.3472H49.2519V20.6752H50.5799V25.2672H56.8199V20.6752H58.1479V31.3472H56.8199Z" fill="white"/>
</svg>
