<svg width="97" height="52" viewBox="0 0 97 52" fill="none" xmlns="http://www.w3.org/2000/svg">
<path fill-rule="evenodd" clip-rule="evenodd" d="M66.8514 52L97 26L66.8514 0V7.7512H0V44.2488H66.8514V52Z" fill="#8C52FF"/>
<path d="M23.9206 31.3472L17.6966 22.8352V31.3472H16.3686V20.6752H17.7286L23.8726 29.0112V20.6752H25.2006V31.3472H23.9206ZM27.6967 31.3472V20.6752H34.6887V21.8592H29.0247V25.2992H34.5767V26.4832H29.0247V30.1632H34.6887V31.3472H27.6967ZM44.1821 31.3472L40.7741 26.8032L37.3661 31.3472H35.7501L39.9101 25.8752L35.9901 20.6752H37.6061L40.7741 24.9472L43.9261 20.6752H45.5421L41.6381 25.8592L45.7821 31.3472H44.1821ZM49.8836 31.3472V21.8592H46.5076V20.6752H54.6036V21.8592H51.2116V31.3472H49.8836Z" fill="white"/>
</svg>
