<svg width="18" height="18" viewBox="0 0 18 18" fill="none" xmlns="http://www.w3.org/2000/svg">
    <path d="M14.5991 1.215C14.3153 0.931155 13.9784 0.705994 13.6076 0.552376C13.2367 0.398757 12.8393 0.319691 12.4379 0.319691C12.0365 0.319691 11.639 0.398757 11.2682 0.552376C10.8974 0.705994 10.5605 0.931155 10.2766 1.215L1.9954 9.49625C1.92722 9.5648 1.87587 9.64824 1.8454 9.74L0.282897 14.4275C0.247601 14.5337 0.241447 14.6474 0.265079 14.7567C0.288711 14.8661 0.341261 14.9671 0.417245 15.0492C0.493228 15.1313 0.58986 15.1915 0.697053 15.2235C0.804246 15.2556 0.918071 15.2582 1.02665 15.2312L6.02665 13.9812C6.13679 13.9541 6.23747 13.8975 6.3179 13.8175L13.3754 6.75875L13.4829 6.86625C13.7172 7.10066 13.8489 7.41854 13.8489 7.75C13.8489 8.08145 13.7172 8.39934 13.4829 8.63375L11.6829 10.4338C11.5657 10.5511 11.4999 10.7102 11.5 10.8761C11.5002 11.0419 11.5662 11.2009 11.6835 11.3181C11.8009 11.4353 11.96 11.5011 12.1258 11.501C12.2917 11.5009 12.4507 11.4349 12.5679 11.3175L14.3666 9.5175C14.8353 9.04868 15.0986 8.41291 15.0986 7.75C15.0986 7.08709 14.8353 6.45132 14.3666 5.9825L14.2591 5.875L14.5991 5.53625C15.172 4.96313 15.4938 4.18596 15.4938 3.37563C15.4938 2.56529 15.172 1.78812 14.5991 1.215ZM5.20915 17.75C3.6654 17.75 2.44915 17.0425 1.6404 16.3662L3.2454 15.9662C3.84265 16.3103 4.51867 16.4941 5.2079 16.5C5.7154 16.5 6.2379 16.295 6.7954 15.9288C7.3529 15.5625 7.8929 15.07 8.4379 14.56L8.57915 14.4262C9.0604 13.975 9.55915 13.505 10.0366 13.1812C10.5466 12.8337 11.2241 12.5188 11.9329 12.7925C12.4029 12.9725 12.7079 13.305 12.9216 13.7125C13.1229 14.095 13.2616 14.5725 13.3966 15.0938C13.4591 15.3312 13.5629 15.5612 13.6841 15.7162C13.7238 15.7703 13.7719 15.8175 13.8266 15.8562C13.8579 15.875 13.8716 15.875 13.8754 15.875C14.0279 15.875 14.2891 15.7725 14.6629 15.5175C14.8941 15.36 15.0929 15.2025 15.2904 15.0437C15.4121 14.9462 15.5379 14.8483 15.6679 14.75C16.0166 14.4888 16.3179 14.3137 16.5391 14.2025C16.6523 14.145 16.7683 14.0933 16.8866 14.0475L16.9116 14.0375L16.9204 14.035L16.9241 14.0338H16.9254L17.1254 14.625L16.9266 14.0325C17.083 13.9816 17.2531 13.9944 17.4001 14.0681C17.5471 14.1418 17.6592 14.2705 17.7119 14.4262C17.7647 14.5819 17.754 14.7522 17.6821 14.9001C17.6102 15.048 17.483 15.1616 17.3279 15.2162L17.3229 15.2188L17.2841 15.2338C17.2458 15.2487 17.1858 15.2767 17.1041 15.3175C16.9416 15.3987 16.7029 15.5362 16.4166 15.7512C16.3429 15.805 16.2479 15.8812 16.1379 15.9687C15.9116 16.1475 15.6266 16.3738 15.3654 16.5513C14.9779 16.8162 14.4391 17.1262 13.8754 17.1262C13.3304 17.1262 12.9366 16.795 12.6929 16.48C12.4545 16.1597 12.2823 15.7951 12.1866 15.4075C12.0491 14.8787 11.9416 14.5325 11.8166 14.295C11.7041 14.085 11.6041 14.005 11.4841 13.9575C11.3816 13.92 11.1779 13.9162 10.7404 14.215C10.3491 14.48 9.92165 14.8812 9.4179 15.355L9.2929 15.4712C8.75415 15.9775 8.1429 16.54 7.48165 16.9737C6.81915 17.4087 6.05665 17.75 5.20915 17.75Z" fill="#8C52FF" />
</svg>