<svg width="97" height="52" viewBox="0 0 97 52" fill="none" xmlns="http://www.w3.org/2000/svg">
    <path fill-rule="evenodd" clip-rule="evenodd" d="M66.8514 52L97 26L66.8514 0V7.7512H0V44.2488H66.8514V52Z" fill="#8C52FF" />
    <path d="M16.5433 31.5392C15.6047 31.5392 14.7993 31.3845 14.1273 31.0752C13.4553 30.7552 12.8953 30.3445 12.4473 29.8432L13.2313 28.8352C13.402 29.0272 13.6047 29.2192 13.8393 29.4112C14.074 29.5925 14.33 29.7525 14.6073 29.8912C14.8953 30.0298 15.2047 30.1418 15.5353 30.2272C15.866 30.3125 16.218 30.3552 16.5913 30.3552C17.0713 30.3552 17.4713 30.2965 17.7913 30.1792C18.1113 30.0618 18.3673 29.9178 18.5593 29.7472C18.7513 29.5658 18.89 29.3685 18.9753 29.1552C19.0607 28.9312 19.1033 28.7178 19.1033 28.5152C19.1033 28.1738 19.0127 27.8912 18.8313 27.6672C18.65 27.4432 18.41 27.2565 18.1113 27.1072C17.8233 26.9472 17.4873 26.8192 17.1033 26.7232C16.73 26.6165 16.3407 26.5098 15.9353 26.4032C15.5407 26.2858 15.1513 26.1578 14.7673 26.0192C14.394 25.8805 14.058 25.7045 13.7593 25.4912C13.4713 25.2672 13.2367 24.9952 13.0553 24.6752C12.874 24.3552 12.7833 23.9552 12.7833 23.4752C12.7833 23.0378 12.874 22.6378 13.0553 22.2752C13.2473 21.9125 13.5033 21.6032 13.8233 21.3472C14.154 21.0805 14.5433 20.8778 14.9913 20.7392C15.4393 20.5898 15.9247 20.5152 16.4473 20.5152C17.2687 20.5152 17.994 20.6432 18.6233 20.8992C19.2527 21.1552 19.7913 21.5232 20.2393 22.0032L19.4393 22.9792C19.034 22.5312 18.5647 22.2058 18.0313 22.0032C17.498 21.8005 16.938 21.6992 16.3513 21.6992C15.7113 21.6992 15.1833 21.8538 14.7673 22.1632C14.362 22.4725 14.1593 22.8832 14.1593 23.3952C14.1593 23.6938 14.25 23.9392 14.4313 24.1312C14.6127 24.3232 14.8473 24.4885 15.1353 24.6272C15.434 24.7658 15.77 24.8885 16.1433 24.9952C16.5273 25.0912 16.9167 25.1978 17.3113 25.3152C17.7167 25.4218 18.106 25.5498 18.4793 25.6992C18.8633 25.8485 19.1993 26.0405 19.4873 26.2752C19.786 26.5098 20.026 26.7978 20.2073 27.1392C20.3887 27.4805 20.4793 27.9018 20.4793 28.4032C20.4793 28.7872 20.41 29.1712 20.2713 29.5552C20.1327 29.9285 19.9033 30.2645 19.5833 30.5632C19.274 30.8512 18.8687 31.0858 18.3673 31.2672C17.866 31.4485 17.258 31.5392 16.5433 31.5392ZM25.0086 31.3472V21.8592H21.6326V20.6752H29.7286V21.8592H26.3366V31.3472H25.0086ZM38.0315 31.3472L37.0875 28.9792H31.7755L30.8315 31.3472H29.3115L33.5995 20.6752H35.2475L39.5515 31.3472H38.0315ZM34.4315 22.0512L32.1595 27.7952H36.6875L34.4315 22.0512ZM47.1227 31.3472L44.4027 27.1072H42.2747V31.3472H40.9467V20.6752H45.2347C45.7254 20.6752 46.1734 20.7498 46.5787 20.8992C46.984 21.0485 47.336 21.2672 47.6347 21.5552C47.9334 21.8325 48.1627 22.1685 48.3227 22.5632C48.4934 22.9578 48.5787 23.4005 48.5787 23.8912C48.5787 24.3712 48.504 24.7978 48.3547 25.1712C48.2054 25.5445 48.0027 25.8592 47.7467 26.1152C47.4907 26.3712 47.192 26.5738 46.8507 26.7232C46.52 26.8725 46.1734 26.9632 45.8107 26.9952L48.6907 31.3472H47.1227ZM45.0747 25.9392C45.7147 25.9392 46.2267 25.7525 46.6107 25.3792C47.0054 24.9952 47.2027 24.4992 47.2027 23.8912C47.2027 23.2832 47.0054 22.7925 46.6107 22.4192C46.2267 22.0458 45.7147 21.8592 45.0747 21.8592H42.2747V25.9392H45.0747ZM53.1648 31.3472V21.8592H49.7888V20.6752H57.8848V21.8592H54.4928V31.3472H53.1648Z" fill="white" />
</svg>