<?xml version="1.0" encoding="UTF-8"?>
<svg width="100pt" height="100pt" version="1.1" viewBox="0 0 100 100" xmlns="http://www.w3.org/2000/svg">
 <g>
  <path d="m93.801 18.102c0-1.8008-1.5-3.3984-3.3984-3.6016-6.3984-0.80078-12.602-2.1992-18.5-4.3008-6.3008-2.1992-13-5.1016-20-8.8008-1.3008-0.69922-2.6016-0.69922-3.8984 0-6.9023 3.7031-13.703 6.6016-19.902 8.7031-5.8984 2-12.199 3.5-18.5 4.3008-1.8984 0.19922-3.3008 1.6992-3.5 3.6016-0.60156 24.199 5.1992 44.301 17.199 59.801 6.6016 8.5 14.898 15.398 24.699 20.602 0.5 0.39844 1.1992 0.5 2 0.5 0.69922 0 1.3984-0.19922 2.1016-0.5 9.8984-5.3008 18.102-12.301 24.602-20.602 11.898-15.305 17.695-35.406 17.098-59.703zm-23.602 55.598c-5.3008 6.8008-12.098 12.699-20.199 17.402-8.1016-4.6992-15-10.602-20.199-17.398-10.5-13.602-15.699-31.203-15.699-52.305 5.6016-0.89844 11.102-2.3008 17-4.3008 5.8008-2 12.199-4.6992 18.898-8.1016 6.8008 3.3984 13.102 6.1016 18.898 8.1016 5.6992 1.8984 11.398 3.3984 17 4.3008 0 21.301-5.1992 38.801-15.699 52.301z"/>
  <path d="m45.199 50.699-8.6992-6.8984c-1.1016-0.80078-1.8984 0-4.3008 2-1.1992 1-2.6016 2.3008-3 2.8008-0.80078 0.89844-0.39844 1.6992 0 2l17.801 18.098c0.39844 0.39844 0.89844 0.69922 1.5 0.69922 0.10156 0 0.30078 0 0.5-0.10156 0.69922-0.19922 1.1992-0.69922 1.3984-1.3008 2.8008-7.1992 12.102-22.301 24.102-33.301 0.69922-0.60156 0.89844-1.5 0.5-2.3008l-0.10156-0.19922c-1.8984-3-2.6992-4.1016-4-3.3008-12.398 7.6055-21.598 17.207-25.699 21.805z"/>
 </g>
</svg>
